<?xml version='1.0' encoding='UTF-8' standalone='no'?>
<svg xmlns:xlink="http://www.w3.org/1999/xlink" height="434pt" viewBox="0 0 585 434" width="585pt" xmlns="http://www.w3.org/2000/svg">
 <title>Figure 1</title>
 <desc>
Creator: GL2PS 1.4.2, (C) 1999-2020 C. Geuzaine
For: Octave
CreationDate: Fri Dec 02 15:57:32 2022
</desc>
 <defs/>
 <polygon fill="#ffffff" points="0,0 585,0 585,434 0,434"/>
 <g>
  <polygon shape-rendering="crispEdges" fill="#ffffff" points="0,434 585,434 585,0 0,0"/>
  <clipPath id="cp00585434">
   <polygon points="0,434 585,434 585,0 0,0"/>
  </clipPath>
  <g clip-path="url(#cp00585434)">
   <polygon shape-rendering="crispEdges" fill="#ffffff" points="76.0722,386.881 529.579,386.881 529.579,32.6024 76.0722,32.6024"/>
   <polyline stroke-linejoin="miter" stroke-dasharray="1,3,1,3,1,3,1,3" stroke="#191919" fill="none" points="98.8254,386.881 98.8254,32.6024" stroke-opacity="0.25" stroke-linecap="butt" stroke-width="0.5"/>
   <polyline stroke-linejoin="miter" stroke-dasharray="1,3,1,3,1,3,1,3" stroke="#191919" fill="none" points="112.135,386.881 112.135,32.6024" stroke-opacity="0.25" stroke-linecap="butt" stroke-width="0.5"/>
   <polyline stroke-linejoin="miter" stroke-dasharray="1,3,1,3,1,3,1,3" stroke="#191919" fill="none" points="121.579,386.881 121.579,32.6024" stroke-opacity="0.25" stroke-linecap="butt" stroke-width="0.5"/>
   <polyline stroke-linejoin="miter" stroke-dasharray="1,3,1,3,1,3,1,3" stroke="#191919" fill="none" points="128.904,386.881 128.904,32.6024" stroke-opacity="0.25" stroke-linecap="butt" stroke-width="0.5"/>
   <polyline stroke-linejoin="miter" stroke-dasharray="1,3,1,3,1,3,1,3" stroke="#191919" fill="none" points="134.888,386.881 134.888,32.6024" stroke-opacity="0.25" stroke-linecap="butt" stroke-width="0.5"/>
   <polyline stroke-linejoin="miter" stroke-dasharray="1,3,1,3,1,3,1,3" stroke="#191919" fill="none" points="139.949,386.881 139.949,32.6024" stroke-opacity="0.25" stroke-linecap="butt" stroke-width="0.5"/>
   <polyline stroke-linejoin="miter" stroke-dasharray="1,3,1,3,1,3,1,3" stroke="#191919" fill="none" points="144.332,386.881 144.332,32.6024" stroke-opacity="0.25" stroke-linecap="butt" stroke-width="0.5"/>
   <polyline stroke-linejoin="miter" stroke-dasharray="1,3,1,3,1,3,1,3" stroke="#191919" fill="none" points="148.198,386.881 148.198,32.6024" stroke-opacity="0.25" stroke-linecap="butt" stroke-width="0.5"/>
   <polyline stroke-linejoin="miter" stroke-dasharray="1,3,1,3,1,3,1,3" stroke="#191919" fill="none" points="174.41,386.881 174.41,32.6024" stroke-opacity="0.25" stroke-linecap="butt" stroke-width="0.5"/>
   <polyline stroke-linejoin="miter" stroke-dasharray="1,3,1,3,1,3,1,3" stroke="#191919" fill="none" points="187.72,386.881 187.72,32.6024" stroke-opacity="0.25" stroke-linecap="butt" stroke-width="0.5"/>
   <polyline stroke-linejoin="miter" stroke-dasharray="1,3,1,3,1,3,1,3" stroke="#191919" fill="none" points="197.163,386.881 197.163,32.6024" stroke-opacity="0.25" stroke-linecap="butt" stroke-width="0.5"/>
   <polyline stroke-linejoin="miter" stroke-dasharray="1,3,1,3,1,3,1,3" stroke="#191919" fill="none" points="204.488,386.881 204.488,32.6024" stroke-opacity="0.25" stroke-linecap="butt" stroke-width="0.5"/>
   <polyline stroke-linejoin="miter" stroke-dasharray="1,3,1,3,1,3,1,3" stroke="#191919" fill="none" points="210.473,386.881 210.473,32.6024" stroke-opacity="0.25" stroke-linecap="butt" stroke-width="0.5"/>
   <polyline stroke-linejoin="miter" stroke-dasharray="1,3,1,3,1,3,1,3" stroke="#191919" fill="none" points="215.533,386.881 215.533,32.6024" stroke-opacity="0.25" stroke-linecap="butt" stroke-width="0.5"/>
   <polyline stroke-linejoin="miter" stroke-dasharray="1,3,1,3,1,3,1,3" stroke="#191919" fill="none" points="219.916,386.881 219.916,32.6024" stroke-opacity="0.25" stroke-linecap="butt" stroke-width="0.5"/>
   <polyline stroke-linejoin="miter" stroke-dasharray="1,3,1,3,1,3,1,3" stroke="#191919" fill="none" points="223.783,386.881 223.783,32.6024" stroke-opacity="0.25" stroke-linecap="butt" stroke-width="0.5"/>
   <polyline stroke-linejoin="miter" stroke-dasharray="1,3,1,3,1,3,1,3" stroke="#191919" fill="none" points="249.994,386.881 249.994,32.6024" stroke-opacity="0.25" stroke-linecap="butt" stroke-width="0.5"/>
   <polyline stroke-linejoin="miter" stroke-dasharray="1,3,1,3,1,3,1,3" stroke="#191919" fill="none" points="263.304,386.881 263.304,32.6024" stroke-opacity="0.25" stroke-linecap="butt" stroke-width="0.5"/>
   <polyline stroke-linejoin="miter" stroke-dasharray="1,3,1,3,1,3,1,3" stroke="#191919" fill="none" points="272.748,386.881 272.748,32.6024" stroke-opacity="0.25" stroke-linecap="butt" stroke-width="0.5"/>
   <polyline stroke-linejoin="miter" stroke-dasharray="1,3,1,3,1,3,1,3" stroke="#191919" fill="none" points="280.073,386.881 280.073,32.6024" stroke-opacity="0.25" stroke-linecap="butt" stroke-width="0.5"/>
   <polyline stroke-linejoin="miter" stroke-dasharray="1,3,1,3,1,3,1,3" stroke="#191919" fill="none" points="286.057,386.881 286.057,32.6024" stroke-opacity="0.25" stroke-linecap="butt" stroke-width="0.5"/>
   <polyline stroke-linejoin="miter" stroke-dasharray="1,3,1,3,1,3,1,3" stroke="#191919" fill="none" points="291.118,386.881 291.118,32.6024" stroke-opacity="0.25" stroke-linecap="butt" stroke-width="0.5"/>
   <polyline stroke-linejoin="miter" stroke-dasharray="1,3,1,3,1,3,1,3" stroke="#191919" fill="none" points="295.501,386.881 295.501,32.6024" stroke-opacity="0.25" stroke-linecap="butt" stroke-width="0.5"/>
   <polyline stroke-linejoin="miter" stroke-dasharray="1,3,1,3,1,3,1,3" stroke="#191919" fill="none" points="299.367,386.881 299.367,32.6024" stroke-opacity="0.25" stroke-linecap="butt" stroke-width="0.5"/>
   <polyline stroke-linejoin="miter" stroke-dasharray="1,3,1,3,1,3,1,3" stroke="#191919" fill="none" points="325.579,386.881 325.579,32.6024" stroke-opacity="0.25" stroke-linecap="butt" stroke-width="0.5"/>
   <polyline stroke-linejoin="miter" stroke-dasharray="1,3,1,3,1,3,1,3" stroke="#191919" fill="none" points="338.889,386.881 338.889,32.6024" stroke-opacity="0.25" stroke-linecap="butt" stroke-width="0.5"/>
   <polyline stroke-linejoin="miter" stroke-dasharray="1,3,1,3,1,3,1,3" stroke="#191919" fill="none" points="348.332,386.881 348.332,32.6024" stroke-opacity="0.25" stroke-linecap="butt" stroke-width="0.5"/>
   <polyline stroke-linejoin="miter" stroke-dasharray="1,3,1,3,1,3,1,3" stroke="#191919" fill="none" points="355.657,386.881 355.657,32.6024" stroke-opacity="0.25" stroke-linecap="butt" stroke-width="0.5"/>
   <polyline stroke-linejoin="miter" stroke-dasharray="1,3,1,3,1,3,1,3" stroke="#191919" fill="none" points="361.642,386.881 361.642,32.6024" stroke-opacity="0.25" stroke-linecap="butt" stroke-width="0.5"/>
   <polyline stroke-linejoin="miter" stroke-dasharray="1,3,1,3,1,3,1,3" stroke="#191919" fill="none" points="366.702,386.881 366.702,32.6024" stroke-opacity="0.25" stroke-linecap="butt" stroke-width="0.5"/>
   <polyline stroke-linejoin="miter" stroke-dasharray="1,3,1,3,1,3,1,3" stroke="#191919" fill="none" points="371.085,386.881 371.085,32.6024" stroke-opacity="0.25" stroke-linecap="butt" stroke-width="0.5"/>
   <polyline stroke-linejoin="miter" stroke-dasharray="1,3,1,3,1,3,1,3" stroke="#191919" fill="none" points="374.952,386.881 374.952,32.6024" stroke-opacity="0.25" stroke-linecap="butt" stroke-width="0.5"/>
   <polyline stroke-linejoin="miter" stroke-dasharray="1,3,1,3,1,3,1,3" stroke="#191919" fill="none" points="401.164,386.881 401.164,32.6024" stroke-opacity="0.25" stroke-linecap="butt" stroke-width="0.5"/>
   <polyline stroke-linejoin="miter" stroke-dasharray="1,3,1,3,1,3,1,3" stroke="#191919" fill="none" points="414.473,386.881 414.473,32.6024" stroke-opacity="0.25" stroke-linecap="butt" stroke-width="0.5"/>
   <polyline stroke-linejoin="miter" stroke-dasharray="1,3,1,3,1,3,1,3" stroke="#191919" fill="none" points="423.917,386.881 423.917,32.6024" stroke-opacity="0.25" stroke-linecap="butt" stroke-width="0.5"/>
   <polyline stroke-linejoin="miter" stroke-dasharray="1,3,1,3,1,3,1,3" stroke="#191919" fill="none" points="431.242,386.881 431.242,32.6024" stroke-opacity="0.25" stroke-linecap="butt" stroke-width="0.5"/>
   <polyline stroke-linejoin="miter" stroke-dasharray="1,3,1,3,1,3,1,3" stroke="#191919" fill="none" points="437.226,386.881 437.226,32.6024" stroke-opacity="0.25" stroke-linecap="butt" stroke-width="0.5"/>
   <polyline stroke-linejoin="miter" stroke-dasharray="1,3,1,3,1,3,1,3" stroke="#191919" fill="none" points="442.287,386.881 442.287,32.6024" stroke-opacity="0.25" stroke-linecap="butt" stroke-width="0.5"/>
   <polyline stroke-linejoin="miter" stroke-dasharray="1,3,1,3,1,3,1,3" stroke="#191919" fill="none" points="446.67,386.881 446.67,32.6024" stroke-opacity="0.25" stroke-linecap="butt" stroke-width="0.5"/>
   <polyline stroke-linejoin="miter" stroke-dasharray="1,3,1,3,1,3,1,3" stroke="#191919" fill="none" points="450.536,386.881 450.536,32.6024" stroke-opacity="0.25" stroke-linecap="butt" stroke-width="0.5"/>
   <polyline stroke-linejoin="miter" stroke-dasharray="1,3,1,3,1,3,1,3" stroke="#191919" fill="none" points="476.748,386.881 476.748,32.6024" stroke-opacity="0.25" stroke-linecap="butt" stroke-width="0.5"/>
   <polyline stroke-linejoin="miter" stroke-dasharray="1,3,1,3,1,3,1,3" stroke="#191919" fill="none" points="490.058,386.881 490.058,32.6024" stroke-opacity="0.25" stroke-linecap="butt" stroke-width="0.5"/>
   <polyline stroke-linejoin="miter" stroke-dasharray="1,3,1,3,1,3,1,3" stroke="#191919" fill="none" points="499.501,386.881 499.501,32.6024" stroke-opacity="0.25" stroke-linecap="butt" stroke-width="0.5"/>
   <polyline stroke-linejoin="miter" stroke-dasharray="1,3,1,3,1,3,1,3" stroke="#191919" fill="none" points="506.826,386.881 506.826,32.6024" stroke-opacity="0.25" stroke-linecap="butt" stroke-width="0.5"/>
   <polyline stroke-linejoin="miter" stroke-dasharray="1,3,1,3,1,3,1,3" stroke="#191919" fill="none" points="512.811,386.881 512.811,32.6024" stroke-opacity="0.25" stroke-linecap="butt" stroke-width="0.5"/>
   <polyline stroke-linejoin="miter" stroke-dasharray="1,3,1,3,1,3,1,3" stroke="#191919" fill="none" points="517.871,386.881 517.871,32.6024" stroke-opacity="0.25" stroke-linecap="butt" stroke-width="0.5"/>
   <polyline stroke-linejoin="miter" stroke-dasharray="1,3,1,3,1,3,1,3" stroke="#191919" fill="none" points="522.255,386.881 522.255,32.6024" stroke-opacity="0.25" stroke-linecap="butt" stroke-width="0.5"/>
   <polyline stroke-linejoin="miter" stroke-dasharray="1,3,1,3,1,3,1,3" stroke="#191919" fill="none" points="526.121,386.881 526.121,32.6024" stroke-opacity="0.25" stroke-linecap="butt" stroke-width="0.5"/>
   <polyline stroke-linejoin="miter" stroke-dasharray="16,0" stroke="#262626" fill="none" points="76.0722,386.881 76.0722,32.6024" stroke-opacity="0.15" stroke-linecap="butt" stroke-width="0.5"/>
   <polyline stroke-linejoin="miter" stroke-dasharray="16,0" stroke="#262626" fill="none" points="151.657,386.881 151.657,32.6024" stroke-opacity="0.15" stroke-linecap="butt" stroke-width="0.5"/>
   <polyline stroke-linejoin="miter" stroke-dasharray="16,0" stroke="#262626" fill="none" points="227.241,386.881 227.241,32.6024" stroke-opacity="0.15" stroke-linecap="butt" stroke-width="0.5"/>
   <polyline stroke-linejoin="miter" stroke-dasharray="16,0" stroke="#262626" fill="none" points="302.826,386.881 302.826,32.6024" stroke-opacity="0.15" stroke-linecap="butt" stroke-width="0.5"/>
   <polyline stroke-linejoin="miter" stroke-dasharray="16,0" stroke="#262626" fill="none" points="378.41,386.881 378.41,32.6024" stroke-opacity="0.15" stroke-linecap="butt" stroke-width="0.5"/>
   <polyline stroke-linejoin="miter" stroke-dasharray="16,0" stroke="#262626" fill="none" points="453.995,386.881 453.995,32.6024" stroke-opacity="0.15" stroke-linecap="butt" stroke-width="0.5"/>
   <polyline stroke-linejoin="miter" stroke-dasharray="16,0" stroke="#262626" fill="none" points="529.579,386.881 529.579,32.6024" stroke-opacity="0.15" stroke-linecap="butt" stroke-width="0.5"/>
   <polyline stroke-linejoin="miter" stroke="#262626" fill="none" points="76.0722,386.881 76.0722,382.343" stroke-linecap="butt" stroke-width="0.5"/>
   <polyline stroke-linejoin="miter" stroke="#262626" fill="none" points="76.0722,32.6024 76.0722,37.1411" stroke-linecap="butt" stroke-width="0.5"/>
   <polyline stroke-linejoin="miter" stroke="#262626" fill="none" points="151.657,386.881 151.657,382.343" stroke-linecap="butt" stroke-width="0.5"/>
   <polyline stroke-linejoin="miter" stroke="#262626" fill="none" points="151.657,32.6024 151.657,37.1411" stroke-linecap="butt" stroke-width="0.5"/>
   <polyline stroke-linejoin="miter" stroke="#262626" fill="none" points="227.241,386.881 227.241,382.343" stroke-linecap="butt" stroke-width="0.5"/>
   <polyline stroke-linejoin="miter" stroke="#262626" fill="none" points="227.241,32.6024 227.241,37.1411" stroke-linecap="butt" stroke-width="0.5"/>
   <polyline stroke-linejoin="miter" stroke="#262626" fill="none" points="302.826,386.881 302.826,382.343" stroke-linecap="butt" stroke-width="0.5"/>
   <polyline stroke-linejoin="miter" stroke="#262626" fill="none" points="302.826,32.6024 302.826,37.1411" stroke-linecap="butt" stroke-width="0.5"/>
   <polyline stroke-linejoin="miter" stroke="#262626" fill="none" points="378.41,386.881 378.41,382.343" stroke-linecap="butt" stroke-width="0.5"/>
   <polyline stroke-linejoin="miter" stroke="#262626" fill="none" points="378.41,32.6024 378.41,37.1411" stroke-linecap="butt" stroke-width="0.5"/>
   <polyline stroke-linejoin="miter" stroke="#262626" fill="none" points="453.995,386.881 453.995,382.343" stroke-linecap="butt" stroke-width="0.5"/>
   <polyline stroke-linejoin="miter" stroke="#262626" fill="none" points="453.995,32.6024 453.995,37.1411" stroke-linecap="butt" stroke-width="0.5"/>
   <polyline stroke-linejoin="miter" stroke="#262626" fill="none" points="529.579,386.881 529.579,382.343" stroke-linecap="butt" stroke-width="0.5"/>
   <polyline stroke-linejoin="miter" stroke="#262626" fill="none" points="529.579,32.6024 529.579,37.1411" stroke-linecap="butt" stroke-width="0.5"/>
   <g xml:space="preserve" transform="translate(65.5722,411.39) rotate(-0,10.5,-14)" font-size="14" font-family="FreeSans" font-weight="normal" font-style="normal">
    <text x="0 8 " fill="rgb(38,38,38)" y="-0">10</text>
    <text x="16 " font-size="9.8" fill="rgb(38,38,38)" y="-6">2</text>
   </g>
   <g xml:space="preserve" transform="translate(141.157,411.39) rotate(-0,10.5,-14)" font-size="14" font-family="FreeSans" font-weight="normal" font-style="normal">
    <text x="0 8 " fill="rgb(38,38,38)" y="-0">10</text>
    <text x="16 " font-size="9.8" fill="rgb(38,38,38)" y="-6">3</text>
   </g>
   <g xml:space="preserve" transform="translate(216.741,411.39) rotate(-0,10.5,-14)" font-size="14" font-family="FreeSans" font-weight="normal" font-style="normal">
    <text x="0 8 " fill="rgb(38,38,38)" y="-0">10</text>
    <text x="16 " font-size="9.8" fill="rgb(38,38,38)" y="-6">4</text>
   </g>
   <g xml:space="preserve" transform="translate(292.326,411.39) rotate(-0,10.5,-14)" font-size="14" font-family="FreeSans" font-weight="normal" font-style="normal">
    <text x="0 8 " fill="rgb(38,38,38)" y="-0">10</text>
    <text x="16 " font-size="9.8" fill="rgb(38,38,38)" y="-6">5</text>
   </g>
   <g xml:space="preserve" transform="translate(367.91,411.39) rotate(-0,10.5,-14)" font-size="14" font-family="FreeSans" font-weight="normal" font-style="normal">
    <text x="0 8 " fill="rgb(38,38,38)" y="-0">10</text>
    <text x="16 " font-size="9.8" fill="rgb(38,38,38)" y="-6">6</text>
   </g>
   <g xml:space="preserve" transform="translate(443.495,411.39) rotate(-0,10.5,-14)" font-size="14" font-family="FreeSans" font-weight="normal" font-style="normal">
    <text x="0 8 " fill="rgb(38,38,38)" y="-0">10</text>
    <text x="16 " font-size="9.8" fill="rgb(38,38,38)" y="-6">7</text>
   </g>
   <g xml:space="preserve" transform="translate(519.079,411.39) rotate(-0,10.5,-14)" font-size="14" font-family="FreeSans" font-weight="normal" font-style="normal">
    <text x="0 8 " fill="rgb(38,38,38)" y="-0">10</text>
    <text x="16 " font-size="9.8" fill="rgb(38,38,38)" y="-6">8</text>
   </g>
   <polyline stroke-linejoin="miter" stroke-dasharray="1,3,1,3,1,3,1,3" stroke="#191919" fill="none" points="76.0722,382.302 529.579,382.302" stroke-opacity="0.25" stroke-linecap="butt" stroke-width="0.5"/>
   <polyline stroke-linejoin="miter" stroke-dasharray="1,3,1,3,1,3,1,3" stroke="#191919" fill="none" points="76.0722,377.883 529.579,377.883" stroke-opacity="0.25" stroke-linecap="butt" stroke-width="0.5"/>
   <polyline stroke-linejoin="miter" stroke-dasharray="1,3,1,3,1,3,1,3" stroke="#191919" fill="none" points="76.0722,373.614 529.579,373.614" stroke-opacity="0.25" stroke-linecap="butt" stroke-width="0.5"/>
   <polyline stroke-linejoin="miter" stroke-dasharray="1,3,1,3,1,3,1,3" stroke="#191919" fill="none" points="76.0722,369.485 529.579,369.485" stroke-opacity="0.25" stroke-linecap="butt" stroke-width="0.5"/>
   <polyline stroke-linejoin="miter" stroke-dasharray="1,3,1,3,1,3,1,3" stroke="#191919" fill="none" points="76.0722,365.487 529.579,365.487" stroke-opacity="0.25" stroke-linecap="butt" stroke-width="0.5"/>
   <polyline stroke-linejoin="miter" stroke-dasharray="1,3,1,3,1,3,1,3" stroke="#191919" fill="none" points="76.0722,361.612 529.579,361.612" stroke-opacity="0.25" stroke-linecap="butt" stroke-width="0.5"/>
   <polyline stroke-linejoin="miter" stroke-dasharray="1,3,1,3,1,3,1,3" stroke="#191919" fill="none" points="76.0722,357.853 529.579,357.853" stroke-opacity="0.25" stroke-linecap="butt" stroke-width="0.5"/>
   <polyline stroke-linejoin="miter" stroke-dasharray="1,3,1,3,1,3,1,3" stroke="#191919" fill="none" points="76.0722,354.202 529.579,354.202" stroke-opacity="0.25" stroke-linecap="butt" stroke-width="0.5"/>
   <polyline stroke-linejoin="miter" stroke-dasharray="1,3,1,3,1,3,1,3" stroke="#191919" fill="none" points="76.0722,347.205 529.579,347.205" stroke-opacity="0.25" stroke-linecap="butt" stroke-width="0.5"/>
   <polyline stroke-linejoin="miter" stroke-dasharray="1,3,1,3,1,3,1,3" stroke="#191919" fill="none" points="76.0722,343.847 529.579,343.847" stroke-opacity="0.25" stroke-linecap="butt" stroke-width="0.5"/>
   <polyline stroke-linejoin="miter" stroke-dasharray="1,3,1,3,1,3,1,3" stroke="#191919" fill="none" points="76.0722,340.576 529.579,340.576" stroke-opacity="0.25" stroke-linecap="butt" stroke-width="0.5"/>
   <polyline stroke-linejoin="miter" stroke-dasharray="1,3,1,3,1,3,1,3" stroke="#191919" fill="none" points="76.0722,337.387 529.579,337.387" stroke-opacity="0.25" stroke-linecap="butt" stroke-width="0.5"/>
   <polyline stroke-linejoin="miter" stroke-dasharray="1,3,1,3,1,3,1,3" stroke="#191919" fill="none" points="76.0722,334.278 529.579,334.278" stroke-opacity="0.25" stroke-linecap="butt" stroke-width="0.5"/>
   <polyline stroke-linejoin="miter" stroke-dasharray="1,3,1,3,1,3,1,3" stroke="#191919" fill="none" points="76.0722,331.244 529.579,331.244" stroke-opacity="0.25" stroke-linecap="butt" stroke-width="0.5"/>
   <polyline stroke-linejoin="miter" stroke-dasharray="1,3,1,3,1,3,1,3" stroke="#191919" fill="none" points="76.0722,328.28 529.579,328.28" stroke-opacity="0.25" stroke-linecap="butt" stroke-width="0.5"/>
   <polyline stroke-linejoin="miter" stroke-dasharray="1,3,1,3,1,3,1,3" stroke="#191919" fill="none" points="76.0722,325.385 529.579,325.385" stroke-opacity="0.25" stroke-linecap="butt" stroke-width="0.5"/>
   <polyline stroke-linejoin="miter" stroke-dasharray="1,3,1,3,1,3,1,3" stroke="#191919" fill="none" points="76.0722,309.288 529.579,309.288" stroke-opacity="0.25" stroke-linecap="butt" stroke-width="0.5"/>
   <polyline stroke-linejoin="miter" stroke-dasharray="1,3,1,3,1,3,1,3" stroke="#191919" fill="none" points="76.0722,297.286 529.579,297.286" stroke-opacity="0.25" stroke-linecap="butt" stroke-width="0.5"/>
   <polyline stroke-linejoin="miter" stroke-dasharray="1,3,1,3,1,3,1,3" stroke="#191919" fill="none" points="76.0722,286.329 529.579,286.329" stroke-opacity="0.25" stroke-linecap="butt" stroke-width="0.5"/>
   <polyline stroke-linejoin="miter" stroke-dasharray="1,3,1,3,1,3,1,3" stroke="#191919" fill="none" points="76.0722,276.25 529.579,276.25" stroke-opacity="0.25" stroke-linecap="butt" stroke-width="0.5"/>
   <polyline stroke-linejoin="miter" stroke-dasharray="1,3,1,3,1,3,1,3" stroke="#191919" fill="none" points="76.0722,266.918 529.579,266.918" stroke-opacity="0.25" stroke-linecap="butt" stroke-width="0.5"/>
   <polyline stroke-linejoin="miter" stroke-dasharray="1,3,1,3,1,3,1,3" stroke="#191919" fill="none" points="76.0722,258.23 529.579,258.23" stroke-opacity="0.25" stroke-linecap="butt" stroke-width="0.5"/>
   <polyline stroke-linejoin="miter" stroke-dasharray="1,3,1,3,1,3,1,3" stroke="#191919" fill="none" points="76.0722,250.103 529.579,250.103" stroke-opacity="0.25" stroke-linecap="butt" stroke-width="0.5"/>
   <polyline stroke-linejoin="miter" stroke-dasharray="1,3,1,3,1,3,1,3" stroke="#191919" fill="none" points="76.0722,242.469 529.579,242.469" stroke-opacity="0.25" stroke-linecap="butt" stroke-width="0.5"/>
   <polyline stroke-linejoin="miter" stroke-dasharray="1,3,1,3,1,3,1,3" stroke="#191919" fill="none" points="76.0722,222.003 529.579,222.003" stroke-opacity="0.25" stroke-linecap="butt" stroke-width="0.5"/>
   <polyline stroke-linejoin="miter" stroke-dasharray="1,3,1,3,1,3,1,3" stroke="#191919" fill="none" points="76.0722,210.002 529.579,210.002" stroke-opacity="0.25" stroke-linecap="butt" stroke-width="0.5"/>
   <polyline stroke-linejoin="miter" stroke-dasharray="1,3,1,3,1,3,1,3" stroke="#191919" fill="none" points="76.0722,199.045 529.579,199.045" stroke-opacity="0.25" stroke-linecap="butt" stroke-width="0.5"/>
   <polyline stroke-linejoin="miter" stroke-dasharray="1,3,1,3,1,3,1,3" stroke="#191919" fill="none" points="76.0722,188.965 529.579,188.965" stroke-opacity="0.25" stroke-linecap="butt" stroke-width="0.5"/>
   <polyline stroke-linejoin="miter" stroke-dasharray="1,3,1,3,1,3,1,3" stroke="#191919" fill="none" points="76.0722,179.633 529.579,179.633" stroke-opacity="0.25" stroke-linecap="butt" stroke-width="0.5"/>
   <polyline stroke-linejoin="miter" stroke-dasharray="1,3,1,3,1,3,1,3" stroke="#191919" fill="none" points="76.0722,170.945 529.579,170.945" stroke-opacity="0.25" stroke-linecap="butt" stroke-width="0.5"/>
   <polyline stroke-linejoin="miter" stroke-dasharray="1,3,1,3,1,3,1,3" stroke="#191919" fill="none" points="76.0722,162.818 529.579,162.818" stroke-opacity="0.25" stroke-linecap="butt" stroke-width="0.5"/>
   <polyline stroke-linejoin="miter" stroke-dasharray="1,3,1,3,1,3,1,3" stroke="#191919" fill="none" points="76.0722,155.184 529.579,155.184" stroke-opacity="0.25" stroke-linecap="butt" stroke-width="0.5"/>
   <polyline stroke-linejoin="miter" stroke-dasharray="1,3,1,3,1,3,1,3" stroke="#191919" fill="none" points="76.0722,141.178 529.579,141.178" stroke-opacity="0.25" stroke-linecap="butt" stroke-width="0.5"/>
   <polyline stroke-linejoin="miter" stroke-dasharray="1,3,1,3,1,3,1,3" stroke="#191919" fill="none" points="76.0722,134.719 529.579,134.719" stroke-opacity="0.25" stroke-linecap="butt" stroke-width="0.5"/>
   <polyline stroke-linejoin="miter" stroke-dasharray="1,3,1,3,1,3,1,3" stroke="#191919" fill="none" points="76.0722,128.575 529.579,128.575" stroke-opacity="0.25" stroke-linecap="butt" stroke-width="0.5"/>
   <polyline stroke-linejoin="miter" stroke-dasharray="1,3,1,3,1,3,1,3" stroke="#191919" fill="none" points="76.0722,122.717 529.579,122.717" stroke-opacity="0.25" stroke-linecap="butt" stroke-width="0.5"/>
   <polyline stroke-linejoin="miter" stroke-dasharray="1,3,1,3,1,3,1,3" stroke="#191919" fill="none" points="76.0722,117.119 529.579,117.119" stroke-opacity="0.25" stroke-linecap="butt" stroke-width="0.5"/>
   <polyline stroke-linejoin="miter" stroke-dasharray="1,3,1,3,1,3,1,3" stroke="#191919" fill="none" points="76.0722,111.76 529.579,111.76" stroke-opacity="0.25" stroke-linecap="butt" stroke-width="0.5"/>
   <polyline stroke-linejoin="miter" stroke-dasharray="1,3,1,3,1,3,1,3" stroke="#191919" fill="none" points="76.0722,106.62 529.579,106.62" stroke-opacity="0.25" stroke-linecap="butt" stroke-width="0.5"/>
   <polyline stroke-linejoin="miter" stroke-dasharray="1,3,1,3,1,3,1,3" stroke="#191919" fill="none" points="76.0722,101.681 529.579,101.681" stroke-opacity="0.25" stroke-linecap="butt" stroke-width="0.5"/>
   <polyline stroke-linejoin="miter" stroke-dasharray="1,3,1,3,1,3,1,3" stroke="#191919" fill="none" points="76.0722,92.3486 529.579,92.3486" stroke-opacity="0.25" stroke-linecap="butt" stroke-width="0.5"/>
   <polyline stroke-linejoin="miter" stroke-dasharray="1,3,1,3,1,3,1,3" stroke="#191919" fill="none" points="76.0722,87.9297 529.579,87.9297" stroke-opacity="0.25" stroke-linecap="butt" stroke-width="0.5"/>
   <polyline stroke-linejoin="miter" stroke-dasharray="1,3,1,3,1,3,1,3" stroke="#191919" fill="none" points="76.0722,83.6606 529.579,83.6606" stroke-opacity="0.25" stroke-linecap="butt" stroke-width="0.5"/>
   <polyline stroke-linejoin="miter" stroke-dasharray="1,3,1,3,1,3,1,3" stroke="#191919" fill="none" points="76.0722,79.5316 529.579,79.5316" stroke-opacity="0.25" stroke-linecap="butt" stroke-width="0.5"/>
   <polyline stroke-linejoin="miter" stroke-dasharray="1,3,1,3,1,3,1,3" stroke="#191919" fill="none" points="76.0722,75.5336 529.579,75.5336" stroke-opacity="0.25" stroke-linecap="butt" stroke-width="0.5"/>
   <polyline stroke-linejoin="miter" stroke-dasharray="1,3,1,3,1,3,1,3" stroke="#191919" fill="none" points="76.0722,71.6587 529.579,71.6587" stroke-opacity="0.25" stroke-linecap="butt" stroke-width="0.5"/>
   <polyline stroke-linejoin="miter" stroke-dasharray="1,3,1,3,1,3,1,3" stroke="#191919" fill="none" points="76.0722,67.8994 529.579,67.8994" stroke-opacity="0.25" stroke-linecap="butt" stroke-width="0.5"/>
   <polyline stroke-linejoin="miter" stroke-dasharray="1,3,1,3,1,3,1,3" stroke="#191919" fill="none" points="76.0722,64.2492 529.579,64.2492" stroke-opacity="0.25" stroke-linecap="butt" stroke-width="0.5"/>
   <polyline stroke-linejoin="miter" stroke-dasharray="1,3,1,3,1,3,1,3" stroke="#191919" fill="none" points="76.0722,57.2515 529.579,57.2515" stroke-opacity="0.25" stroke-linecap="butt" stroke-width="0.5"/>
   <polyline stroke-linejoin="miter" stroke-dasharray="1,3,1,3,1,3,1,3" stroke="#191919" fill="none" points="76.0722,53.8933 529.579,53.8933" stroke-opacity="0.25" stroke-linecap="butt" stroke-width="0.5"/>
   <polyline stroke-linejoin="miter" stroke-dasharray="1,3,1,3,1,3,1,3" stroke="#191919" fill="none" points="76.0722,50.6224 529.579,50.6224" stroke-opacity="0.25" stroke-linecap="butt" stroke-width="0.5"/>
   <polyline stroke-linejoin="miter" stroke-dasharray="1,3,1,3,1,3,1,3" stroke="#191919" fill="none" points="76.0722,47.4342 529.579,47.4342" stroke-opacity="0.25" stroke-linecap="butt" stroke-width="0.5"/>
   <polyline stroke-linejoin="miter" stroke-dasharray="1,3,1,3,1,3,1,3" stroke="#191919" fill="none" points="76.0722,44.3248 529.579,44.3248" stroke-opacity="0.25" stroke-linecap="butt" stroke-width="0.5"/>
   <polyline stroke-linejoin="miter" stroke-dasharray="1,3,1,3,1,3,1,3" stroke="#191919" fill="none" points="76.0722,41.2903 529.579,41.2903" stroke-opacity="0.25" stroke-linecap="butt" stroke-width="0.5"/>
   <polyline stroke-linejoin="miter" stroke-dasharray="1,3,1,3,1,3,1,3" stroke="#191919" fill="none" points="76.0722,38.3272 529.579,38.3272" stroke-opacity="0.25" stroke-linecap="butt" stroke-width="0.5"/>
   <polyline stroke-linejoin="miter" stroke-dasharray="1,3,1,3,1,3,1,3" stroke="#191919" fill="none" points="76.0722,35.4323 529.579,35.4323" stroke-opacity="0.25" stroke-linecap="butt" stroke-width="0.5"/>
   <polyline stroke-linejoin="miter" stroke-dasharray="16,0" stroke="#262626" fill="none" points="76.0722,386.881 529.579,386.881" stroke-opacity="0.15" stroke-linecap="butt" stroke-width="0.5"/>
   <polyline stroke-linejoin="miter" stroke-dasharray="16,0" stroke="#262626" fill="none" points="76.0722,350.655 529.579,350.655" stroke-opacity="0.15" stroke-linecap="butt" stroke-width="0.5"/>
   <polyline stroke-linejoin="miter" stroke-dasharray="16,0" stroke="#262626" fill="none" points="76.0722,322.556 529.579,322.556" stroke-opacity="0.15" stroke-linecap="butt" stroke-width="0.5"/>
   <polyline stroke-linejoin="miter" stroke-dasharray="16,0" stroke="#262626" fill="none" points="76.0722,235.271 529.579,235.271" stroke-opacity="0.15" stroke-linecap="butt" stroke-width="0.5"/>
   <polyline stroke-linejoin="miter" stroke-dasharray="16,0" stroke="#262626" fill="none" points="76.0722,147.986 529.579,147.986" stroke-opacity="0.15" stroke-linecap="butt" stroke-width="0.5"/>
   <polyline stroke-linejoin="miter" stroke-dasharray="16,0" stroke="#262626" fill="none" points="76.0722,96.9282 529.579,96.9282" stroke-opacity="0.15" stroke-linecap="butt" stroke-width="0.5"/>
   <polyline stroke-linejoin="miter" stroke-dasharray="16,0" stroke="#262626" fill="none" points="76.0722,60.7018 529.579,60.7018" stroke-opacity="0.15" stroke-linecap="butt" stroke-width="0.5"/>
   <polyline stroke-linejoin="miter" stroke-dasharray="16,0" stroke="#262626" fill="none" points="76.0722,32.6024 529.579,32.6024" stroke-opacity="0.15" stroke-linecap="butt" stroke-width="0.5"/>
   <polyline stroke-linejoin="miter" stroke="#262626" fill="none" points="76.0722,386.881 80.6023,386.881" stroke-linecap="butt" stroke-width="0.5"/>
   <polyline stroke-linejoin="miter" stroke="#262626" fill="none" points="529.579,386.881 525.049,386.881" stroke-linecap="butt" stroke-width="0.5"/>
   <polyline stroke-linejoin="miter" stroke="#262626" fill="none" points="76.0722,350.655 80.6023,350.655" stroke-linecap="butt" stroke-width="0.5"/>
   <polyline stroke-linejoin="miter" stroke="#262626" fill="none" points="529.579,350.655 525.049,350.655" stroke-linecap="butt" stroke-width="0.5"/>
   <polyline stroke-linejoin="miter" stroke="#262626" fill="none" points="76.0722,322.556 80.6023,322.556" stroke-linecap="butt" stroke-width="0.5"/>
   <polyline stroke-linejoin="miter" stroke="#262626" fill="none" points="529.579,322.556 525.049,322.556" stroke-linecap="butt" stroke-width="0.5"/>
   <polyline stroke-linejoin="miter" stroke="#262626" fill="none" points="76.0722,235.271 80.6023,235.271" stroke-linecap="butt" stroke-width="0.5"/>
   <polyline stroke-linejoin="miter" stroke="#262626" fill="none" points="529.579,235.271 525.049,235.271" stroke-linecap="butt" stroke-width="0.5"/>
   <polyline stroke-linejoin="miter" stroke="#262626" fill="none" points="76.0722,147.986 80.6023,147.986" stroke-linecap="butt" stroke-width="0.5"/>
   <polyline stroke-linejoin="miter" stroke="#262626" fill="none" points="529.579,147.986 525.049,147.986" stroke-linecap="butt" stroke-width="0.5"/>
   <polyline stroke-linejoin="miter" stroke="#262626" fill="none" points="76.0722,96.9282 80.6023,96.9282" stroke-linecap="butt" stroke-width="0.5"/>
   <polyline stroke-linejoin="miter" stroke="#262626" fill="none" points="529.579,96.9282 525.049,96.9282" stroke-linecap="butt" stroke-width="0.5"/>
   <polyline stroke-linejoin="miter" stroke="#262626" fill="none" points="76.0722,60.7018 80.6023,60.7018" stroke-linecap="butt" stroke-width="0.5"/>
   <polyline stroke-linejoin="miter" stroke="#262626" fill="none" points="529.579,60.7018 525.049,60.7018" stroke-linecap="butt" stroke-width="0.5"/>
   <polyline stroke-linejoin="miter" stroke="#262626" fill="none" points="76.0722,32.6024 80.6023,32.6024" stroke-linecap="butt" stroke-width="0.5"/>
   <polyline stroke-linejoin="miter" stroke="#262626" fill="none" points="529.579,32.6024 525.049,32.6024" stroke-linecap="butt" stroke-width="0.5"/>
   <g xml:space="preserve" transform="translate(30.0798,393.881) rotate(-0,39,-7)" font-size="14" font-family="FreeSans" font-weight="normal" font-style="normal">
    <text x="0 8 15 23 " fill="rgb(38,38,38)" y="-0">6x10</text>
    <text x="31 34 " font-size="9.8" fill="rgb(38,38,38)" y="-6">-3</text>
   </g>
   <g xml:space="preserve" transform="translate(30.0798,357.655) rotate(-0,39,-7)" font-size="14" font-family="FreeSans" font-weight="normal" font-style="normal">
    <text x="0 8 15 23 " fill="rgb(38,38,38)" y="-0">8x10</text>
    <text x="31 34 " font-size="9.8" fill="rgb(38,38,38)" y="-6">-3</text>
   </g>
   <g xml:space="preserve" transform="translate(45.0798,329.556) rotate(-0,24,-7)" font-size="14" font-family="FreeSans" font-weight="normal" font-style="normal">
    <text x="0 8 " fill="rgb(38,38,38)" y="-0">10</text>
    <text x="16 19 " font-size="9.8" fill="rgb(38,38,38)" y="-6">-2</text>
   </g>
   <g xml:space="preserve" transform="translate(30.0798,242.271) rotate(-0,39,-7)" font-size="14" font-family="FreeSans" font-weight="normal" font-style="normal">
    <text x="0 8 15 23 " fill="rgb(38,38,38)" y="-0">2x10</text>
    <text x="31 34 " font-size="9.8" fill="rgb(38,38,38)" y="-6">-2</text>
   </g>
   <g xml:space="preserve" transform="translate(30.0798,154.986) rotate(-0,39,-7)" font-size="14" font-family="FreeSans" font-weight="normal" font-style="normal">
    <text x="0 8 15 23 " fill="rgb(38,38,38)" y="-0">4x10</text>
    <text x="31 34 " font-size="9.8" fill="rgb(38,38,38)" y="-6">-2</text>
   </g>
   <g xml:space="preserve" transform="translate(30.0798,103.928) rotate(-0,39,-7)" font-size="14" font-family="FreeSans" font-weight="normal" font-style="normal">
    <text x="0 8 15 23 " fill="rgb(38,38,38)" y="-0">6x10</text>
    <text x="31 34 " font-size="9.8" fill="rgb(38,38,38)" y="-6">-2</text>
   </g>
   <g xml:space="preserve" transform="translate(30.0798,67.7017) rotate(-0,39,-7)" font-size="14" font-family="FreeSans" font-weight="normal" font-style="normal">
    <text x="0 8 15 23 " fill="rgb(38,38,38)" y="-0">8x10</text>
    <text x="31 34 " font-size="9.8" fill="rgb(38,38,38)" y="-6">-2</text>
   </g>
   <g xml:space="preserve" transform="translate(45.0798,39.6024) rotate(-0,24,-7)" font-size="14" font-family="FreeSans" font-weight="normal" font-style="normal">
    <text x="0 8 " fill="rgb(38,38,38)" y="-0">10</text>
    <text x="16 19 " font-size="9.8" fill="rgb(38,38,38)" y="-6">-1</text>
   </g>
   <polyline stroke-linejoin="miter" stroke-dasharray="16,0" stroke="#262626" fill="none" points="76.0722,386.881 529.579,386.881" stroke-linecap="square" stroke-width="0.5"/>
   <polyline stroke-linejoin="miter" stroke-dasharray="16,0" stroke="#262626" fill="none" points="76.0722,32.6024 529.579,32.6024" stroke-linecap="square" stroke-width="0.5"/>
   <polyline stroke-linejoin="miter" stroke-dasharray="16,0" stroke="#262626" fill="none" points="76.0722,386.881 76.0722,32.6024" stroke-linecap="square" stroke-width="0.5"/>
   <polyline stroke-linejoin="miter" stroke-dasharray="16,0" stroke="#262626" fill="none" points="529.579,386.881 529.579,32.6024" stroke-linecap="square" stroke-width="0.5"/>
   <g xml:space="preserve" transform="translate(232.826,433.39) rotate(-0,70,-17)" font-size="15.4" font-family="FreeSans" font-weight="normal" font-style="normal">
    <text x="0 11 19 26 34 42 45 54 62 66 74 82 95 104 112 117 " fill="rgb(38,38,38)" y="-4">Reynolds number </text>
    <text x="121 132 " fill="rgb(38,38,38)" y="-4" font-style="italic">Re</text>
   </g>
   <g xml:space="preserve" transform="translate(-43.4202,209.742) rotate(-90,68.5,0)" font-size="15.4" font-family="FreeSans" font-weight="normal" font-style="normal">
    <text x="0 11 19 24 32 39 43 47 52 55 63 67 70 78 86 90 94 102 110 114 122 127 " fill="rgb(38,38,38)" y="-4">Darcy friction factor </text>
    <text x="131 " fill="rgb(38,38,38)" y="-4" font-style="italic">f</text>
   </g>
   <polyline stroke-linejoin="round" stroke="#000000" fill="none" points="178.998,59.6712 186.152,62.2906 193.307,64.4987 200.462,66.347 207.617,67.8845 214.771,69.1564 221.926,70.2036 229.081,71.0623 236.236,71.764 243.39,72.3358 250.545,72.8005 257.7,73.1776 264.854,73.4829 272.009,73.7299 279.164,73.9294 286.319,74.0905 293.473,74.2204 300.628,74.3252 307.783,74.4095 314.938,74.4775 322.092,74.5322 329.247,74.5763 336.402,74.6117 343.556,74.6403 350.711,74.6632 357.866,74.6817 365.021,74.6966 372.175,74.7085 379.33,74.7181 386.485,74.7259 393.64,74.7321 400.794,74.7371 407.949,74.7411 415.104,74.7443 422.258,74.7469 429.413,74.749 436.568,74.7507 443.723,74.7521 450.877,74.7531 458.032,74.754 465.187,74.7547 472.342,74.7553 479.496,74.7557 486.651,74.7561 493.806,74.7564 500.96,74.7567 508.115,74.7568 515.27,74.757 522.425,74.7571 529.579,74.7572" stroke-linecap="butt" stroke-width="1"/>
   <g xml:space="preserve" transform="translate(501.254,70.7377) rotate(-0,21,-4.5)" font-size="11" font-family="FreeSans" font-weight="normal" font-style="normal">
    <text x="0 6 9 15 " fill="rgb(0,0,0)" y="-0">0.05</text>
   </g>
   <polyline stroke-linejoin="round" stroke="#000000" fill="none" points="178.998,86.3729 186.152,90.4423 193.307,93.9909 200.462,97.0471 207.617,99.6606 214.771,101.877 221.926,103.743 229.081,105.302 236.236,106.597 243.39,107.668 250.545,108.548 257.7,109.269 264.854,109.858 272.009,110.338 279.164,110.727 286.319,111.043 293.473,111.299 300.628,111.506 307.783,111.673 314.938,111.807 322.092,111.916 329.247,112.004 336.402,112.074 343.556,112.131 350.711,112.177 357.866,112.214 365.021,112.244 372.175,112.267 379.33,112.287 386.485,112.302 393.64,112.314 400.794,112.324 407.949,112.333 415.104,112.339 422.258,112.344 429.413,112.348 436.568,112.352 443.723,112.354 450.877,112.357 458.032,112.358 465.187,112.36 472.342,112.361 479.496,112.362 486.651,112.363 493.806,112.363 500.96,112.364 508.115,112.364 515.27,112.364 522.425,112.365 529.579,112.365" stroke-linecap="butt" stroke-width="1"/>
   <g xml:space="preserve" transform="translate(495.254,108.344) rotate(-0,27,-4.5)" font-size="11" font-family="FreeSans" font-weight="normal" font-style="normal">
    <text x="0 6 9 15 21 " fill="rgb(0,0,0)" y="-0">0.025</text>
   </g>
   <polyline stroke-linejoin="round" stroke="#000000" fill="none" points="178.998,108.028 186.152,114.025 193.307,119.492 200.462,124.434 207.617,128.86 214.771,132.787 221.926,136.237 229.081,139.241 236.236,141.83 243.39,144.043 250.545,145.918 257.7,147.495 264.854,148.812 272.009,149.906 279.164,150.809 286.319,151.551 293.473,152.159 300.628,152.655 307.783,153.059 314.938,153.387 322.092,153.653 329.247,153.868 336.402,154.042 343.556,154.182 350.711,154.296 357.866,154.387 365.021,154.461 372.175,154.52 379.33,154.568 386.485,154.607 393.64,154.637 400.794,154.662 407.949,154.682 415.104,154.699 422.258,154.712 429.413,154.722 436.568,154.73 443.723,154.737 450.877,154.743 458.032,154.747 465.187,154.751 472.342,154.753 479.496,154.756 486.651,154.757 493.806,154.759 500.96,154.76 508.115,154.761 515.27,154.762 522.425,154.763 529.579,154.763" stroke-linecap="butt" stroke-width="1"/>
   <g xml:space="preserve" transform="translate(501.254,150.745) rotate(-0,21,-4.5)" font-size="11" font-family="FreeSans" font-weight="normal" font-style="normal">
    <text x="0 6 9 15 " fill="rgb(0,0,0)" y="-0">0.01</text>
   </g>
   <polyline stroke-linejoin="round" stroke="#000000" fill="none" points="178.998,120.728 186.152,128.352 193.307,135.585 200.462,142.42 207.617,148.849 214.771,154.862 221.926,160.452 229.081,165.611 236.236,170.335 243.39,174.624 250.545,178.481 257.7,181.918 264.854,184.949 272.009,187.596 279.164,189.885 286.319,191.847 293.473,193.514 300.628,194.919 307.783,196.095 314.938,197.077 322.092,197.885 329.247,198.55 336.402,199.095 343.556,199.541 350.711,199.904 357.866,200.199 365.021,200.438 372.175,200.631 379.33,200.788 386.485,200.914 393.64,201.017 400.794,201.099 407.949,201.165 415.104,201.219 422.258,201.262 429.413,201.297 436.568,201.324 443.723,201.347 450.877,201.365 458.032,201.38 465.187,201.391 472.342,201.401 479.496,201.408 486.651,201.414 493.806,201.419 500.96,201.423 508.115,201.426 515.27,201.429 522.425,201.431 529.579,201.433" stroke-linecap="butt" stroke-width="1"/>
   <g xml:space="preserve" transform="translate(495.254,197.417) rotate(-0,27,-4.5)" font-size="11" font-family="FreeSans" font-weight="normal" font-style="normal">
    <text x="0 6 9 15 21 " fill="rgb(0,0,0)" y="-0">0.003</text>
   </g>
   <polyline stroke-linejoin="round" stroke="#000000" fill="none" points="178.998,124.799 186.152,133.046 193.307,140.993 200.462,148.642 207.617,155.992 214.771,163.04 221.926,169.784 229.081,176.216 236.236,182.327 243.39,188.11 250.545,193.552 257.7,198.646 264.854,203.375 272.009,207.737 279.164,211.724 286.319,215.337 293.473,218.58 300.628,221.46 307.783,223.993 314.938,226.199 322.092,228.101 329.247,229.726 336.402,231.103 343.556,232.26 350.711,233.227 357.866,234.029 365.021,234.691 372.175,235.235 379.33,235.68 386.485,236.043 393.64,236.339 400.794,236.579 407.949,236.774 415.104,236.931 422.258,237.058 429.413,237.161 436.568,237.244 443.723,237.311 450.877,237.365 458.032,237.408 465.187,237.443 472.342,237.471 479.496,237.494 486.651,237.512 493.806,237.527 500.96,237.539 508.115,237.548 515.27,237.556 522.425,237.562 529.579,237.567" stroke-linecap="butt" stroke-width="1"/>
   <g xml:space="preserve" transform="translate(495.254,233.567) rotate(-0,27,-4.5)" font-size="11" font-family="FreeSans" font-weight="normal" font-style="normal">
    <text x="0 6 9 15 21 " fill="rgb(0,0,0)" y="-0">0.001</text>
   </g>
   <polyline stroke-linejoin="round" stroke="#000000" fill="none" points="178.998,126.279 186.152,134.767 193.307,142.996 200.462,150.972 207.617,158.705 214.771,166.198 221.926,173.457 229.081,180.484 236.236,187.28 243.39,193.843 250.545,200.175 257.7,206.265 264.854,212.11 272.009,217.703 279.164,223.033 286.319,228.092 293.473,232.866 300.628,237.344 307.783,241.516 314.938,245.372 322.092,248.906 329.247,252.115 336.402,254.999 343.556,257.567 350.711,259.828 357.866,261.801 365.021,263.503 372.175,264.96 379.33,266.195 386.485,267.234 393.64,268.102 400.794,268.823 407.949,269.419 415.104,269.908 422.258,270.309 429.413,270.636 436.568,270.902 443.723,271.118 450.877,271.294 458.032,271.436 465.187,271.55 472.342,271.643 479.496,271.718 486.651,271.778 493.806,271.827 500.96,271.866 508.115,271.897 515.27,271.923 522.425,271.943 529.579,271.96" stroke-linecap="butt" stroke-width="1"/>
   <g xml:space="preserve" transform="translate(489.254,268.007) rotate(-0,33,-4.5)" font-size="11" font-family="FreeSans" font-weight="normal" font-style="normal">
    <text x="0 6 9 15 21 27 " fill="rgb(0,0,0)" y="-0">0.0003</text>
   </g>
   <polyline stroke-linejoin="round" stroke="#000000" fill="none" points="178.998,126.707 186.152,135.267 193.307,143.579 200.462,151.654 207.617,159.503 214.771,167.133 221.926,174.553 229.081,181.769 236.236,188.787 243.39,195.615 250.545,202.248 257.7,208.694 264.854,214.955 272.009,221.029 279.164,226.916 286.319,232.611 293.473,238.11 300.628,243.408 307.783,248.497 314.938,253.366 322.092,258.006 329.247,262.406 336.402,266.553 343.556,270.436 350.711,274.047 357.866,277.372 365.021,280.408 372.175,283.154 379.33,285.613 386.485,287.791 393.64,289.701 400.794,291.359 407.949,292.784 415.104,293.998 422.258,295.024 429.413,295.884 436.568,296.6 443.723,297.193 450.877,297.681 458.032,298.082 465.187,298.41 472.342,298.677 479.496,298.894 486.651,299.07 493.806,299.213 500.96,299.328 508.115,299.422 515.27,299.497 522.425,299.558 529.579,299.607" stroke-linecap="butt" stroke-width="1"/>
   <g xml:space="preserve" transform="translate(489.254,295.789) rotate(-0,33,-4.5)" font-size="11" font-family="FreeSans" font-weight="normal" font-style="normal">
    <text x="0 6 9 15 21 27 " fill="rgb(0,0,0)" y="-0">0.0001</text>
   </g>
   <polyline stroke-linejoin="round" stroke-dasharray="8,2,4,2,8,2,4,2" stroke="#0000ff" fill="none" points="498.919,319.591 491.136,314.301 483.353,308.897 475.57,303.375 467.787,297.729 460.004,291.953 452.221,286.042 444.438,279.988 436.655,273.786 428.871,267.427 421.088,260.903 413.305,254.206 405.522,247.326 397.739,240.252 389.956,232.975 382.173,225.48 374.39,217.756 366.606,209.787 358.823,201.558 351.04,193.051 343.257,184.246 335.474,175.123 327.691,165.656 319.908,155.82 312.124,145.584 304.341,134.914 296.558,123.772 288.775,112.114 280.992,99.8903 273.209,87.0428 265.425,73.5046" stroke-linecap="butt" stroke-width="1.5"/>
   <polyline stroke-linejoin="round" stroke-dasharray="8,2,4,2,8,2,4,2" stroke="#0000ff" fill="none" points="178.998,126.922 188.48,138.262 197.963,149.186 207.446,159.719 216.928,169.889 226.411,179.715 235.894,189.22 245.376,198.425 254.859,207.341 264.342,215.989 273.824,224.382 283.307,232.534 292.79,240.459 302.272,248.167 311.755,255.669 321.238,262.976 330.72,270.097 340.203,277.041 349.686,283.815 359.168,290.427 368.651,296.885 378.134,303.196 387.616,309.365 397.099,315.4 406.582,321.303 416.064,327.083 425.547,332.742 435.03,338.287 444.512,343.721 453.995,349.049" stroke-linecap="butt" stroke-width="1.5"/>
   <g xml:space="preserve" transform="translate(382.287,356.655) rotate(-0,60,-6)" font-size="11" font-family="FreeSans" font-weight="normal" font-style="normal">
    <text x="0 7 16 22 28 31 37 40 46 48 54 " fill="rgb(0,0,255)" y="-3">Smooth pipe</text>
   </g>
   <g xml:space="preserve" transform="translate(272.748,72.6608) rotate(-0,-0,-5.5)" font-size="11" font-family="FreeSans" font-weight="normal" font-style="normal">
    <text x="0 7 13 15 17 22 25 29 35 41 47 53 56 59 61 67 " fill="rgb(0,0,255)" y="-2">Fully rough flow</text>
   </g>
   <polyline stroke-linejoin="round" stroke="#000000" fill="none" points="136.915,32.2481 197.163,263.37" stroke-linecap="butt" stroke-width="1"/>
   <polyline stroke-linejoin="round" stroke="#ff0000" fill="none" points="178.998,121.325 186.152,129.037 193.307,136.369 200.462,143.315 207.617,149.868 214.771,156.018 221.926,161.757 229.081,167.075 236.236,171.968 243.39,176.432 250.545,180.467 257.7,184.082 264.854,187.288 272.009,190.103 279.164,192.55 286.319,194.659 293.473,196.458 300.628,197.985 307.783,199.264 314.938,200.331 322.092,201.216 329.247,201.947 336.402,202.547 343.556,203.038 350.711,203.438 357.866,203.764 365.021,204.029 372.175,204.243 379.33,204.416 386.485,204.557 393.64,204.67 400.794,204.761 407.949,204.835 415.104,204.894 422.258,204.942 429.413,204.981 436.568,205.012 443.723,205.037 450.877,205.057 458.032,205.073 465.187,205.086 472.342,205.096 479.496,205.105 486.651,205.112 493.806,205.117 500.96,205.121 508.115,205.125 515.27,205.128 522.425,205.13 529.579,205.132" stroke-linecap="butt" stroke-width="2"/>
   <g xml:space="preserve" transform="translate(413.67,201.117) rotate(-0,33,-4.5)" font-size="11" font-family="FreeSans" font-weight="normal" font-style="normal">
    <text x="0 6 9 15 21 27 " fill="rgb(255,0,0)" y="-0">0.0027</text>
   </g>
   <polygon shape-rendering="crispEdges" fill="#ff0000" points="312.624,201.198 311.514,202.59 309.91,203.363 308.13,203.363 306.526,202.59 305.416,201.198 305.02,199.463 305.416,197.727 306.526,196.335 308.13,195.563 309.91,195.563 311.514,196.335 312.624,197.727 313.02,199.463"/>
   <polyline stroke-linejoin="round" stroke="#ff0000" fill="none" points="313.02,199.463 312.624,201.198 311.514,202.59 309.91,203.363 308.13,203.363 306.526,202.59 305.416,201.198 305.02,199.463 305.416,197.727 306.526,196.335 308.13,195.563 309.91,195.563 311.514,196.335 312.624,197.727 313.02,199.463" stroke-linecap="round" stroke-width="0.5"/>
   <polyline stroke-linejoin="round" stroke-dasharray="9,7" stroke="#ff0000" fill="none" points="333.448,386.881 287.272,32.6024" stroke-linecap="butt" stroke-width="1"/>
  </g>
 </g>
</svg>
