<?xml version="1.0" encoding="UTF-8" standalone="no"?>
<svg
   height="293pt"
   width="392.00003pt"
   viewBox="0 0 392.00003 293"
   version="1.1"
   id="svg301"
   sodipodi:docname="D2fRe.svg"
   xmlns:inkscape="http://www.inkscape.org/namespaces/inkscape"
   xmlns:sodipodi="http://sodipodi.sourceforge.net/DTD/sodipodi-0.dtd"
   xmlns="http://www.w3.org/2000/svg"
   xmlns:svg="http://www.w3.org/2000/svg">
  <sodipodi:namedview
     id="namedview303"
     pagecolor="#ffffff"
     bordercolor="#000000"
     borderopacity="0.25"
     inkscape:showpageshadow="2"
     inkscape:pageopacity="0.0"
     inkscape:pagecheckerboard="0"
     inkscape:deskcolor="#d1d1d1"
     inkscape:document-units="pt"
     showgrid="false" />
  <title
     id="title2">Figure 1</title>
  <desc
     id="desc4">
Creator: GL2PS 1.4.2, (C) 1999-2020 C. Geuzaine
For: Octave
CreationDate: Mon Oct 10 11:22:51 2022
</desc>
  <defs
     id="defs6" />
  <polygon
     points="0,0 392,0 392,293 0,293 "
     fill="#ffffff"
     id="polygon8" />
  <g
     id="g299">
    <polygon
       points="0,293 392,293 392,0 0,0 "
       fill="#ffffff"
       shape-rendering="crispEdges"
       id="polygon10" />
    <clipPath
       id="cp00392293">
      <polygon
         points="0,293 392,293 392,0 0,0 "
         id="polygon12" />
    </clipPath>
    <g
       clip-path="url(#cp00392293)"
       id="g297">
      <polygon
         points="55.9901,247.837 355.657,247.837 355.657,22.0005 55.9901,22.0005 "
         fill="#ffffff"
         shape-rendering="crispEdges"
         id="polygon15" />
      <polyline
         stroke-dasharray="1, 3, 1, 3, 1, 3, 1, 3"
         stroke-width="0.5"
         points="71.0249,247.837 71.0249,22.0005"
         stroke="#191919"
         fill="none"
         stroke-opacity="0.25"
         stroke-linecap="butt"
         stroke-linejoin="miter"
         id="polyline17" />
      <polyline
         stroke-dasharray="1, 3, 1, 3, 1, 3, 1, 3"
         stroke-width="0.5"
         points="79.8197,247.837 79.8197,22.0005"
         stroke="#191919"
         fill="none"
         stroke-opacity="0.25"
         stroke-linecap="butt"
         stroke-linejoin="miter"
         id="polyline19" />
      <polyline
         stroke-dasharray="1, 3, 1, 3, 1, 3, 1, 3"
         stroke-width="0.5"
         points="86.0597,247.837 86.0597,22.0005"
         stroke="#191919"
         fill="none"
         stroke-opacity="0.25"
         stroke-linecap="butt"
         stroke-linejoin="miter"
         id="polyline21" />
      <polyline
         stroke-dasharray="1, 3, 1, 3, 1, 3, 1, 3"
         stroke-width="0.5"
         points="90.8998,247.837 90.8998,22.0005"
         stroke="#191919"
         fill="none"
         stroke-opacity="0.25"
         stroke-linecap="butt"
         stroke-linejoin="miter"
         id="polyline23" />
      <polyline
         stroke-dasharray="1, 3, 1, 3, 1, 3, 1, 3"
         stroke-width="0.5"
         points="94.8545,247.837 94.8545,22.0005"
         stroke="#191919"
         fill="none"
         stroke-opacity="0.25"
         stroke-linecap="butt"
         stroke-linejoin="miter"
         id="polyline25" />
      <polyline
         stroke-dasharray="1, 3, 1, 3, 1, 3, 1, 3"
         stroke-width="0.5"
         points="98.1981,247.837 98.1981,22.0005"
         stroke="#191919"
         fill="none"
         stroke-opacity="0.25"
         stroke-linecap="butt"
         stroke-linejoin="miter"
         id="polyline27" />
      <polyline
         stroke-dasharray="1, 3, 1, 3, 1, 3, 1, 3"
         stroke-width="0.5"
         points="101.094,247.837 101.094,22.0005"
         stroke="#191919"
         fill="none"
         stroke-opacity="0.25"
         stroke-linecap="butt"
         stroke-linejoin="miter"
         id="polyline29" />
      <polyline
         stroke-dasharray="1, 3, 1, 3, 1, 3, 1, 3"
         stroke-width="0.5"
         points="103.649,247.837 103.649,22.0005"
         stroke="#191919"
         fill="none"
         stroke-opacity="0.25"
         stroke-linecap="butt"
         stroke-linejoin="miter"
         id="polyline31" />
      <polyline
         stroke-dasharray="1, 3, 1, 3, 1, 3, 1, 3"
         stroke-width="0.5"
         points="120.969,247.837 120.969,22.0005"
         stroke="#191919"
         fill="none"
         stroke-opacity="0.25"
         stroke-linecap="butt"
         stroke-linejoin="miter"
         id="polyline33" />
      <polyline
         stroke-dasharray="1, 3, 1, 3, 1, 3, 1, 3"
         stroke-width="0.5"
         points="129.764,247.837 129.764,22.0005"
         stroke="#191919"
         fill="none"
         stroke-opacity="0.25"
         stroke-linecap="butt"
         stroke-linejoin="miter"
         id="polyline35" />
      <polyline
         stroke-dasharray="1, 3, 1, 3, 1, 3, 1, 3"
         stroke-width="0.5"
         points="136.004,247.837 136.004,22.0005"
         stroke="#191919"
         fill="none"
         stroke-opacity="0.25"
         stroke-linecap="butt"
         stroke-linejoin="miter"
         id="polyline37" />
      <polyline
         stroke-dasharray="1, 3, 1, 3, 1, 3, 1, 3"
         stroke-width="0.5"
         points="140.844,247.837 140.844,22.0005"
         stroke="#191919"
         fill="none"
         stroke-opacity="0.25"
         stroke-linecap="butt"
         stroke-linejoin="miter"
         id="polyline39" />
      <polyline
         stroke-dasharray="1, 3, 1, 3, 1, 3, 1, 3"
         stroke-width="0.5"
         points="144.799,247.837 144.799,22.0005"
         stroke="#191919"
         fill="none"
         stroke-opacity="0.25"
         stroke-linecap="butt"
         stroke-linejoin="miter"
         id="polyline41" />
      <polyline
         stroke-dasharray="1, 3, 1, 3, 1, 3, 1, 3"
         stroke-width="0.5"
         points="148.143,247.837 148.143,22.0005"
         stroke="#191919"
         fill="none"
         stroke-opacity="0.25"
         stroke-linecap="butt"
         stroke-linejoin="miter"
         id="polyline43" />
      <polyline
         stroke-dasharray="1, 3, 1, 3, 1, 3, 1, 3"
         stroke-width="0.5"
         points="151.039,247.837 151.039,22.0005"
         stroke="#191919"
         fill="none"
         stroke-opacity="0.25"
         stroke-linecap="butt"
         stroke-linejoin="miter"
         id="polyline45" />
      <polyline
         stroke-dasharray="1, 3, 1, 3, 1, 3, 1, 3"
         stroke-width="0.5"
         points="153.594,247.837 153.594,22.0005"
         stroke="#191919"
         fill="none"
         stroke-opacity="0.25"
         stroke-linecap="butt"
         stroke-linejoin="miter"
         id="polyline47" />
      <polyline
         stroke-dasharray="1, 3, 1, 3, 1, 3, 1, 3"
         stroke-width="0.5"
         points="170.914,247.837 170.914,22.0005"
         stroke="#191919"
         fill="none"
         stroke-opacity="0.25"
         stroke-linecap="butt"
         stroke-linejoin="miter"
         id="polyline49" />
      <polyline
         stroke-dasharray="1, 3, 1, 3, 1, 3, 1, 3"
         stroke-width="0.5"
         points="179.709,247.837 179.709,22.0005"
         stroke="#191919"
         fill="none"
         stroke-opacity="0.25"
         stroke-linecap="butt"
         stroke-linejoin="miter"
         id="polyline51" />
      <polyline
         stroke-dasharray="1, 3, 1, 3, 1, 3, 1, 3"
         stroke-width="0.5"
         points="185.949,247.837 185.949,22.0005"
         stroke="#191919"
         fill="none"
         stroke-opacity="0.25"
         stroke-linecap="butt"
         stroke-linejoin="miter"
         id="polyline53" />
      <polyline
         stroke-dasharray="1, 3, 1, 3, 1, 3, 1, 3"
         stroke-width="0.5"
         points="190.789,247.837 190.789,22.0005"
         stroke="#191919"
         fill="none"
         stroke-opacity="0.25"
         stroke-linecap="butt"
         stroke-linejoin="miter"
         id="polyline55" />
      <polyline
         stroke-dasharray="1, 3, 1, 3, 1, 3, 1, 3"
         stroke-width="0.5"
         points="194.743,247.837 194.743,22.0005"
         stroke="#191919"
         fill="none"
         stroke-opacity="0.25"
         stroke-linecap="butt"
         stroke-linejoin="miter"
         id="polyline57" />
      <polyline
         stroke-dasharray="1, 3, 1, 3, 1, 3, 1, 3"
         stroke-width="0.5"
         points="198.087,247.837 198.087,22.0005"
         stroke="#191919"
         fill="none"
         stroke-opacity="0.25"
         stroke-linecap="butt"
         stroke-linejoin="miter"
         id="polyline59" />
      <polyline
         stroke-dasharray="1, 3, 1, 3, 1, 3, 1, 3"
         stroke-width="0.5"
         points="200.984,247.837 200.984,22.0005"
         stroke="#191919"
         fill="none"
         stroke-opacity="0.25"
         stroke-linecap="butt"
         stroke-linejoin="miter"
         id="polyline61" />
      <polyline
         stroke-dasharray="1, 3, 1, 3, 1, 3, 1, 3"
         stroke-width="0.5"
         points="203.538,247.837 203.538,22.0005"
         stroke="#191919"
         fill="none"
         stroke-opacity="0.25"
         stroke-linecap="butt"
         stroke-linejoin="miter"
         id="polyline63" />
      <polyline
         stroke-dasharray="1, 3, 1, 3, 1, 3, 1, 3"
         stroke-width="0.5"
         points="220.858,247.837 220.858,22.0005"
         stroke="#191919"
         fill="none"
         stroke-opacity="0.25"
         stroke-linecap="butt"
         stroke-linejoin="miter"
         id="polyline65" />
      <polyline
         stroke-dasharray="1, 3, 1, 3, 1, 3, 1, 3"
         stroke-width="0.5"
         points="229.653,247.837 229.653,22.0005"
         stroke="#191919"
         fill="none"
         stroke-opacity="0.25"
         stroke-linecap="butt"
         stroke-linejoin="miter"
         id="polyline67" />
      <polyline
         stroke-dasharray="1, 3, 1, 3, 1, 3, 1, 3"
         stroke-width="0.5"
         points="235.893,247.837 235.893,22.0005"
         stroke="#191919"
         fill="none"
         stroke-opacity="0.25"
         stroke-linecap="butt"
         stroke-linejoin="miter"
         id="polyline69" />
      <polyline
         stroke-dasharray="1, 3, 1, 3, 1, 3, 1, 3"
         stroke-width="0.5"
         points="240.733,247.837 240.733,22.0005"
         stroke="#191919"
         fill="none"
         stroke-opacity="0.25"
         stroke-linecap="butt"
         stroke-linejoin="miter"
         id="polyline71" />
      <polyline
         stroke-dasharray="1, 3, 1, 3, 1, 3, 1, 3"
         stroke-width="0.5"
         points="244.688,247.837 244.688,22.0005"
         stroke="#191919"
         fill="none"
         stroke-opacity="0.25"
         stroke-linecap="butt"
         stroke-linejoin="miter"
         id="polyline73" />
      <polyline
         stroke-dasharray="1, 3, 1, 3, 1, 3, 1, 3"
         stroke-width="0.5"
         points="248.032,247.837 248.032,22.0005"
         stroke="#191919"
         fill="none"
         stroke-opacity="0.25"
         stroke-linecap="butt"
         stroke-linejoin="miter"
         id="polyline75" />
      <polyline
         stroke-dasharray="1, 3, 1, 3, 1, 3, 1, 3"
         stroke-width="0.5"
         points="250.928,247.837 250.928,22.0005"
         stroke="#191919"
         fill="none"
         stroke-opacity="0.25"
         stroke-linecap="butt"
         stroke-linejoin="miter"
         id="polyline77" />
      <polyline
         stroke-dasharray="1, 3, 1, 3, 1, 3, 1, 3"
         stroke-width="0.5"
         points="253.483,247.837 253.483,22.0005"
         stroke="#191919"
         fill="none"
         stroke-opacity="0.25"
         stroke-linecap="butt"
         stroke-linejoin="miter"
         id="polyline79" />
      <polyline
         stroke-dasharray="1, 3, 1, 3, 1, 3, 1, 3"
         stroke-width="0.5"
         points="270.803,247.837 270.803,22.0005"
         stroke="#191919"
         fill="none"
         stroke-opacity="0.25"
         stroke-linecap="butt"
         stroke-linejoin="miter"
         id="polyline81" />
      <polyline
         stroke-dasharray="1, 3, 1, 3, 1, 3, 1, 3"
         stroke-width="0.5"
         points="279.598,247.837 279.598,22.0005"
         stroke="#191919"
         fill="none"
         stroke-opacity="0.25"
         stroke-linecap="butt"
         stroke-linejoin="miter"
         id="polyline83" />
      <polyline
         stroke-dasharray="1, 3, 1, 3, 1, 3, 1, 3"
         stroke-width="0.5"
         points="285.838,247.837 285.838,22.0005"
         stroke="#191919"
         fill="none"
         stroke-opacity="0.25"
         stroke-linecap="butt"
         stroke-linejoin="miter"
         id="polyline85" />
      <polyline
         stroke-dasharray="1, 3, 1, 3, 1, 3, 1, 3"
         stroke-width="0.5"
         points="290.678,247.837 290.678,22.0005"
         stroke="#191919"
         fill="none"
         stroke-opacity="0.25"
         stroke-linecap="butt"
         stroke-linejoin="miter"
         id="polyline87" />
      <polyline
         stroke-dasharray="1, 3, 1, 3, 1, 3, 1, 3"
         stroke-width="0.5"
         points="294.633,247.837 294.633,22.0005"
         stroke="#191919"
         fill="none"
         stroke-opacity="0.25"
         stroke-linecap="butt"
         stroke-linejoin="miter"
         id="polyline89" />
      <polyline
         stroke-dasharray="1, 3, 1, 3, 1, 3, 1, 3"
         stroke-width="0.5"
         points="297.976,247.837 297.976,22.0005"
         stroke="#191919"
         fill="none"
         stroke-opacity="0.25"
         stroke-linecap="butt"
         stroke-linejoin="miter"
         id="polyline91" />
      <polyline
         stroke-dasharray="1, 3, 1, 3, 1, 3, 1, 3"
         stroke-width="0.5"
         points="300.873,247.837 300.873,22.0005"
         stroke="#191919"
         fill="none"
         stroke-opacity="0.25"
         stroke-linecap="butt"
         stroke-linejoin="miter"
         id="polyline93" />
      <polyline
         stroke-dasharray="1, 3, 1, 3, 1, 3, 1, 3"
         stroke-width="0.5"
         points="303.427,247.837 303.427,22.0005"
         stroke="#191919"
         fill="none"
         stroke-opacity="0.25"
         stroke-linecap="butt"
         stroke-linejoin="miter"
         id="polyline95" />
      <polyline
         stroke-dasharray="1, 3, 1, 3, 1, 3, 1, 3"
         stroke-width="0.5"
         points="320.747,247.837 320.747,22.0005"
         stroke="#191919"
         fill="none"
         stroke-opacity="0.25"
         stroke-linecap="butt"
         stroke-linejoin="miter"
         id="polyline97" />
      <polyline
         stroke-dasharray="1, 3, 1, 3, 1, 3, 1, 3"
         stroke-width="0.5"
         points="329.542,247.837 329.542,22.0005"
         stroke="#191919"
         fill="none"
         stroke-opacity="0.25"
         stroke-linecap="butt"
         stroke-linejoin="miter"
         id="polyline99" />
      <polyline
         stroke-dasharray="1, 3, 1, 3, 1, 3, 1, 3"
         stroke-width="0.5"
         points="335.782,247.837 335.782,22.0005"
         stroke="#191919"
         fill="none"
         stroke-opacity="0.25"
         stroke-linecap="butt"
         stroke-linejoin="miter"
         id="polyline101" />
      <polyline
         stroke-dasharray="1, 3, 1, 3, 1, 3, 1, 3"
         stroke-width="0.5"
         points="340.622,247.837 340.622,22.0005"
         stroke="#191919"
         fill="none"
         stroke-opacity="0.25"
         stroke-linecap="butt"
         stroke-linejoin="miter"
         id="polyline103" />
      <polyline
         stroke-dasharray="1, 3, 1, 3, 1, 3, 1, 3"
         stroke-width="0.5"
         points="344.577,247.837 344.577,22.0005"
         stroke="#191919"
         fill="none"
         stroke-opacity="0.25"
         stroke-linecap="butt"
         stroke-linejoin="miter"
         id="polyline105" />
      <polyline
         stroke-dasharray="1, 3, 1, 3, 1, 3, 1, 3"
         stroke-width="0.5"
         points="347.921,247.837 347.921,22.0005"
         stroke="#191919"
         fill="none"
         stroke-opacity="0.25"
         stroke-linecap="butt"
         stroke-linejoin="miter"
         id="polyline107" />
      <polyline
         stroke-dasharray="1, 3, 1, 3, 1, 3, 1, 3"
         stroke-width="0.5"
         points="350.817,247.837 350.817,22.0005"
         stroke="#191919"
         fill="none"
         stroke-opacity="0.25"
         stroke-linecap="butt"
         stroke-linejoin="miter"
         id="polyline109" />
      <polyline
         stroke-dasharray="1, 3, 1, 3, 1, 3, 1, 3"
         stroke-width="0.5"
         points="353.372,247.837 353.372,22.0005"
         stroke="#191919"
         fill="none"
         stroke-opacity="0.25"
         stroke-linecap="butt"
         stroke-linejoin="miter"
         id="polyline111" />
      <polyline
         stroke-dasharray="16, 0"
         stroke-width="0.5"
         points="55.9901,247.837 55.9901,22.0005"
         stroke="#262626"
         fill="none"
         stroke-opacity="0.15"
         stroke-linecap="butt"
         stroke-linejoin="miter"
         id="polyline113" />
      <polyline
         stroke-dasharray="16, 0"
         stroke-width="0.5"
         points="105.935,247.837 105.935,22.0005"
         stroke="#262626"
         fill="none"
         stroke-opacity="0.15"
         stroke-linecap="butt"
         stroke-linejoin="miter"
         id="polyline115" />
      <polyline
         stroke-dasharray="16, 0"
         stroke-width="0.5"
         points="155.879,247.837 155.879,22.0005"
         stroke="#262626"
         fill="none"
         stroke-opacity="0.15"
         stroke-linecap="butt"
         stroke-linejoin="miter"
         id="polyline117" />
      <polyline
         stroke-dasharray="16, 0"
         stroke-width="0.5"
         points="205.824,247.837 205.824,22.0005"
         stroke="#262626"
         fill="none"
         stroke-opacity="0.15"
         stroke-linecap="butt"
         stroke-linejoin="miter"
         id="polyline119" />
      <polyline
         stroke-dasharray="16, 0"
         stroke-width="0.5"
         points="255.768,247.837 255.768,22.0005"
         stroke="#262626"
         fill="none"
         stroke-opacity="0.15"
         stroke-linecap="butt"
         stroke-linejoin="miter"
         id="polyline121" />
      <polyline
         stroke-dasharray="16, 0"
         stroke-width="0.5"
         points="305.713,247.837 305.713,22.0005"
         stroke="#262626"
         fill="none"
         stroke-opacity="0.15"
         stroke-linecap="butt"
         stroke-linejoin="miter"
         id="polyline123" />
      <polyline
         stroke-dasharray="16, 0"
         stroke-width="0.5"
         points="355.657,247.837 355.657,22.0005"
         stroke="#262626"
         fill="none"
         stroke-opacity="0.15"
         stroke-linecap="butt"
         stroke-linejoin="miter"
         id="polyline125" />
      <polyline
         stroke-width="0.5"
         points="55.9901,247.837 55.9901,244.842"
         stroke="#262626"
         fill="none"
         stroke-linecap="butt"
         stroke-linejoin="miter"
         id="polyline127" />
      <polyline
         stroke-width="0.5"
         points="105.935,247.837 105.935,244.842"
         stroke="#262626"
         fill="none"
         stroke-linecap="butt"
         stroke-linejoin="miter"
         id="polyline129" />
      <polyline
         stroke-width="0.5"
         points="155.879,247.837 155.879,244.842"
         stroke="#262626"
         fill="none"
         stroke-linecap="butt"
         stroke-linejoin="miter"
         id="polyline131" />
      <polyline
         stroke-width="0.5"
         points="205.824,247.837 205.824,244.842"
         stroke="#262626"
         fill="none"
         stroke-linecap="butt"
         stroke-linejoin="miter"
         id="polyline133" />
      <polyline
         stroke-width="0.5"
         points="255.768,247.837 255.768,244.842"
         stroke="#262626"
         fill="none"
         stroke-linecap="butt"
         stroke-linejoin="miter"
         id="polyline135" />
      <polyline
         stroke-width="0.5"
         points="305.713,247.837 305.713,244.842"
         stroke="#262626"
         fill="none"
         stroke-linecap="butt"
         stroke-linejoin="miter"
         id="polyline137" />
      <polyline
         stroke-width="0.5"
         points="355.657,247.837 355.657,244.842"
         stroke="#262626"
         fill="none"
         stroke-linecap="butt"
         stroke-linejoin="miter"
         id="polyline139" />
      <g
         transform="translate(45.4901,272.329)"
         font-weight="normal"
         xml:space="preserve"
         font-family="FreeSans"
         font-size="14px"
         font-style="normal"
         id="g145">
    <text
   y="0"
   fill="#262626"
   x="0 8"
   id="text141">10</text>
    <text
   y="-6"
   fill="#262626"
   x="16"
   font-size="9.8px"
   id="text143">2</text>
   </g>
      <g
         transform="translate(95.4346,272.329)"
         font-weight="normal"
         xml:space="preserve"
         font-family="FreeSans"
         font-size="14px"
         font-style="normal"
         id="g151">
    <text
   y="0"
   fill="#262626"
   x="0 8"
   id="text147">10</text>
    <text
   y="-6"
   fill="#262626"
   x="16"
   font-size="9.8px"
   id="text149">3</text>
   </g>
      <g
         transform="translate(145.379,272.329)"
         font-weight="normal"
         xml:space="preserve"
         font-family="FreeSans"
         font-size="14px"
         font-style="normal"
         id="g157">
    <text
   y="0"
   fill="#262626"
   x="0 8"
   id="text153">10</text>
    <text
   y="-6"
   fill="#262626"
   x="16"
   font-size="9.8px"
   id="text155">4</text>
   </g>
      <g
         transform="translate(195.324,272.329)"
         font-weight="normal"
         xml:space="preserve"
         font-family="FreeSans"
         font-size="14px"
         font-style="normal"
         id="g163">
    <text
   y="0"
   fill="#262626"
   x="0 8"
   id="text159">10</text>
    <text
   y="-6"
   fill="#262626"
   x="16"
   font-size="9.8px"
   id="text161">5</text>
   </g>
      <g
         transform="translate(245.268,272.329)"
         font-weight="normal"
         xml:space="preserve"
         font-family="FreeSans"
         font-size="14px"
         font-style="normal"
         id="g169">
    <text
   y="0"
   fill="#262626"
   x="0 8"
   id="text165">10</text>
    <text
   y="-6"
   fill="#262626"
   x="16"
   font-size="9.8px"
   id="text167">6</text>
   </g>
      <g
         transform="translate(295.213,272.329)"
         font-weight="normal"
         xml:space="preserve"
         font-family="FreeSans"
         font-size="14px"
         font-style="normal"
         id="g175">
    <text
   y="0"
   fill="#262626"
   x="0 8"
   id="text171">10</text>
    <text
   y="-6"
   fill="#262626"
   x="16"
   font-size="9.8px"
   id="text173">7</text>
   </g>
      <g
         transform="translate(345.157,272.329)"
         font-weight="normal"
         xml:space="preserve"
         font-family="FreeSans"
         font-size="14px"
         font-style="normal"
         id="g181">
    <text
   y="0"
   fill="#262626"
   x="0 8"
   id="text177">10</text>
    <text
   y="-6"
   fill="#262626"
   x="16"
   font-size="9.8px"
   id="text179">8</text>
   </g>
      <polyline
         stroke-dasharray="1, 3, 1, 3, 1, 3, 1, 3"
         stroke-width="0.5"
         points="55.9901,247.837 355.657,247.837"
         stroke="#191919"
         fill="none"
         stroke-opacity="0.25"
         stroke-linecap="butt"
         stroke-linejoin="miter"
         id="polyline183" />
      <polyline
         stroke-dasharray="1, 3, 1, 3, 1, 3, 1, 3"
         stroke-width="0.5"
         points="55.9901,235.463 355.657,235.463"
         stroke="#191919"
         fill="none"
         stroke-opacity="0.25"
         stroke-linecap="butt"
         stroke-linejoin="miter"
         id="polyline185" />
      <polyline
         stroke-dasharray="1, 3, 1, 3, 1, 3, 1, 3"
         stroke-width="0.5"
         points="55.9901,224.744 355.657,224.744"
         stroke="#191919"
         fill="none"
         stroke-opacity="0.25"
         stroke-linecap="butt"
         stroke-linejoin="miter"
         id="polyline187" />
      <polyline
         stroke-dasharray="1, 3, 1, 3, 1, 3, 1, 3"
         stroke-width="0.5"
         points="55.9901,215.29 355.657,215.29"
         stroke="#191919"
         fill="none"
         stroke-opacity="0.25"
         stroke-linecap="butt"
         stroke-linejoin="miter"
         id="polyline189" />
      <polyline
         stroke-dasharray="1, 3, 1, 3, 1, 3, 1, 3"
         stroke-width="0.5"
         points="55.9901,151.192 355.657,151.192"
         stroke="#191919"
         fill="none"
         stroke-opacity="0.25"
         stroke-linecap="butt"
         stroke-linejoin="miter"
         id="polyline191" />
      <polyline
         stroke-dasharray="1, 3, 1, 3, 1, 3, 1, 3"
         stroke-width="0.5"
         points="55.9901,118.645 355.657,118.645"
         stroke="#191919"
         fill="none"
         stroke-opacity="0.25"
         stroke-linecap="butt"
         stroke-linejoin="miter"
         id="polyline193" />
      <polyline
         stroke-dasharray="1, 3, 1, 3, 1, 3, 1, 3"
         stroke-width="0.5"
         points="55.9901,95.5524 355.657,95.5524"
         stroke="#191919"
         fill="none"
         stroke-opacity="0.25"
         stroke-linecap="butt"
         stroke-linejoin="miter"
         id="polyline195" />
      <polyline
         stroke-dasharray="1, 3, 1, 3, 1, 3, 1, 3"
         stroke-width="0.5"
         points="55.9901,77.6404 355.657,77.6404"
         stroke="#191919"
         fill="none"
         stroke-opacity="0.25"
         stroke-linecap="butt"
         stroke-linejoin="miter"
         id="polyline197" />
      <polyline
         stroke-dasharray="1, 3, 1, 3, 1, 3, 1, 3"
         stroke-width="0.5"
         points="55.9901,63.0052 355.657,63.0052"
         stroke="#191919"
         fill="none"
         stroke-opacity="0.25"
         stroke-linecap="butt"
         stroke-linejoin="miter"
         id="polyline199" />
      <polyline
         stroke-dasharray="1, 3, 1, 3, 1, 3, 1, 3"
         stroke-width="0.5"
         points="55.9901,50.6313 355.657,50.6313"
         stroke="#191919"
         fill="none"
         stroke-opacity="0.25"
         stroke-linecap="butt"
         stroke-linejoin="miter"
         id="polyline201" />
      <polyline
         stroke-dasharray="1, 3, 1, 3, 1, 3, 1, 3"
         stroke-width="0.5"
         points="55.9901,39.9125 355.657,39.9125"
         stroke="#191919"
         fill="none"
         stroke-opacity="0.25"
         stroke-linecap="butt"
         stroke-linejoin="miter"
         id="polyline203" />
      <polyline
         stroke-dasharray="1, 3, 1, 3, 1, 3, 1, 3"
         stroke-width="0.5"
         points="55.9901,30.4579 355.657,30.4579"
         stroke="#191919"
         fill="none"
         stroke-opacity="0.25"
         stroke-linecap="butt"
         stroke-linejoin="miter"
         id="polyline205" />
      <polyline
         stroke-dasharray="16, 0"
         stroke-width="0.5"
         points="55.9901,206.832 355.657,206.832"
         stroke="#262626"
         fill="none"
         stroke-opacity="0.15"
         stroke-linecap="butt"
         stroke-linejoin="miter"
         id="polyline207" />
      <polyline
         stroke-dasharray="16, 0"
         stroke-width="0.5"
         points="55.9901,22.0005 355.657,22.0005"
         stroke="#262626"
         fill="none"
         stroke-opacity="0.15"
         stroke-linecap="butt"
         stroke-linejoin="miter"
         id="polyline209" />
      <polyline
         stroke-width="0.5"
         points="55.9901,206.832 58.9835,206.832"
         stroke="#262626"
         fill="none"
         stroke-linecap="butt"
         stroke-linejoin="miter"
         id="polyline211" />
      <polyline
         stroke-width="0.5"
         points="55.9901,22.0005 58.9835,22.0005"
         stroke="#262626"
         fill="none"
         stroke-linecap="butt"
         stroke-linejoin="miter"
         id="polyline213" />
      <g
         transform="translate(24.9979,213.832)"
         font-weight="normal"
         xml:space="preserve"
         font-family="FreeSans"
         font-size="14px"
         font-style="normal"
         id="g219">
    <text
   y="0"
   fill="#262626"
   x="0 8"
   id="text215">10</text>
    <text
   y="-6"
   fill="#262626"
   x="16 19"
   font-size="9.8px"
   id="text217">-2</text>
   </g>
      <g
         transform="translate(24.9979,29.0005)"
         font-weight="normal"
         xml:space="preserve"
         font-family="FreeSans"
         font-size="14px"
         font-style="normal"
         id="g225">
    <text
   y="0"
   fill="#262626"
   x="0 8"
   id="text221">10</text>
    <text
   y="-6"
   fill="#262626"
   x="16 19"
   font-size="9.8px"
   id="text223">-1</text>
   </g>
      <polyline
         stroke-dasharray="16, 0"
         stroke-width="0.5"
         points="55.9901,247.837 355.657,247.837"
         stroke="#262626"
         fill="none"
         stroke-linecap="square"
         stroke-linejoin="miter"
         id="polyline227" />
      <polyline
         stroke-dasharray="16, 0"
         stroke-width="0.5"
         points="55.9901,247.837 55.9901,22.0005"
         stroke="#262626"
         fill="none"
         stroke-linecap="square"
         stroke-linejoin="miter"
         id="polyline229" />
      <g
         transform="translate(163.824,293.329)"
         font-weight="normal"
         xml:space="preserve"
         font-family="FreeSans"
         font-size="15.4px"
         font-style="italic"
         id="g243">
    <text
   y="-3"
   fill="#262626"
   x="0 11"
   id="text231">Re</text>
    <text
   y="-3"
   fill="#262626"
   x="19 23 32"
   font-style="normal"
   id="text233"> = </text>
    <text
   y="-3"
   fill="#262626"
   x="36"
   id="text235">ρ</text>
    <text
   y="-3"
   fill="#262626"
   x="44 52"
   id="text237">uD</text>
    <text
   y="-3"
   fill="#262626"
   x="63 67 71"
   font-style="normal"
   id="text239"> / </text>
    <text
   y="-3"
   fill="#262626"
   x="75"
   id="text241">μ</text>
   </g>
      <g
         transform="rotate(-90,117.45845,97.46055)"
         font-weight="normal"
         xml:space="preserve"
         font-family="FreeSans"
         font-size="15.4px"
         font-style="italic"
         id="g275">
    <text
   y="-4"
   fill="#262626"
   x="0"
   id="text245">f</text>
    <text
   y="-4"
   fill="#262626"
   x="4 8 17 21"
   font-style="normal"
   id="text247"> = 2</text>
    <text
   y="-4"
   fill="#262626"
   x="30 39 47"
   id="text249">ghD</text>
    <text
   y="-11"
   fill="#262626"
   x="58"
   font-size="10.78px"
   font-style="normal"
   id="text251">3</text>
    <text
   y="-4"
   fill="#262626"
   x="64"
   id="text253">ρ</text>
    <text
   y="-11"
   fill="#262626"
   x="72"
   font-size="10.78px"
   font-style="normal"
   id="text255">2</text>
    <text
   y="-4"
   fill="#262626"
   x="78 82 86"
   font-style="normal"
   id="text257"> / </text>
    <text
   y="-4"
   fill="#262626"
   x="90"
   id="text259">μ</text>
    <text
   y="-11"
   fill="#262626"
   x="99"
   font-size="10.78px"
   font-style="normal"
   id="text261">2</text>
    <text
   y="-4"
   fill="#262626"
   x="105"
   id="text263">L</text>
    <text
   y="-4"
   fill="#262626"
   x="114"
   font-style="normal"
   id="text265" />
    <text
   y="-4"
   fill="#262626"
   x="118"
   font-style="normal"
   id="text267">×</text>
    <text
   y="-4"
   fill="#262626"
   x="127"
   font-style="normal"
   id="text269" />
    <text
   y="-4"
   fill="#262626"
   x="131 142"
   id="text271">Re</text>
    <text
   y="-11"
   fill="#262626"
   x="150 154"
   font-size="10.78px"
   font-style="normal"
   id="text273">-2</text>
   </g>
      <polyline
         stroke-width="1"
         points="96.1934,21.7747 136.004,169.104"
         stroke="#000000"
         fill="none"
         stroke-linecap="butt"
         stroke-linejoin="round"
         id="polyline277" />
      <polyline
         stroke-width="0.5"
         points="120.969,75.2752 125.663,80.3097 130.357,85.1073 135.051,89.6651 139.744,93.9792 144.438,98.0441 149.132,101.854 153.826,105.404 158.519,108.688 163.213,111.703 167.907,114.45 172.601,116.928 177.294,119.143 181.988,121.105 186.682,122.822 191.376,124.315 196.069,125.599 200.763,126.695 205.457,127.62 210.151,128.398 214.845,129.046 219.538,129.584 224.232,130.03 228.926,130.395 233.62,130.694 238.313,130.937 243.007,131.136 247.701,131.298 252.395,131.431 257.088,131.535 261.782,131.621 266.476,131.69 271.17,131.748 275.863,131.793 280.557,131.829 285.251,131.86 289.945,131.884 294.638,131.903 299.332,131.918 304.026,131.93 308.72,131.942 313.413,131.949 318.107,131.956 322.801,131.961 327.495,131.965 332.188,131.968 336.882,131.97 341.576,131.973 346.27,131.975 350.963,131.977 355.657,131.977"
         stroke="#ff0000"
         fill="none"
         stroke-linecap="butt"
         stroke-linejoin="round"
         id="polyline279" />
      <polyline
         stroke-width="0.5"
         points="120.969,77.4172 125.663,82.7816 130.357,87.9579 135.051,92.9473 139.744,97.7558 144.438,102.38 149.132,106.821 153.826,111.071 158.519,115.135 163.213,118.998 167.907,122.664 172.601,126.118 177.294,129.357 181.988,132.376 186.682,135.166 191.376,137.725 196.069,140.054 200.763,142.149 205.457,144.018 210.151,145.669 214.845,147.112 219.538,148.362 224.232,149.435 228.926,150.346 233.62,151.116 238.313,151.762 243.007,152.297 247.701,152.743 252.395,153.11 257.088,153.409 261.782,153.657 266.476,153.857 271.17,154.02 275.863,154.153 280.557,154.26 285.251,154.347 289.945,154.419 294.638,154.476 299.332,154.522 304.026,154.558 308.72,154.588 313.413,154.614 318.107,154.633 322.801,154.649 327.495,154.661 332.188,154.671 336.882,154.679 341.576,154.687 346.27,154.692 350.963,154.696 355.657,154.699"
         stroke="#000000"
         fill="none"
         stroke-linecap="butt"
         stroke-linejoin="round"
         id="polyline281" />
      <polyline
         stroke-width="0.5"
         points="120.969,78.1906 125.663,83.677 130.357,89.0003 135.051,94.1615 139.744,99.1665 144.438,104.023 149.132,108.731 153.826,113.295 158.519,117.717 163.213,121.995 167.907,126.13 172.601,130.123 177.294,133.969 181.988,137.665 186.682,141.207 191.376,144.587 196.069,147.801 200.763,150.841 205.457,153.699 210.151,156.37 214.845,158.846 219.538,161.125 224.232,163.201 228.926,165.073 233.62,166.75 238.313,168.232 243.007,169.529 247.701,170.656 252.395,171.624 257.088,172.447 261.782,173.144 266.476,173.726 271.17,174.213 275.863,174.618 280.557,174.948 285.251,175.223 289.945,175.445 294.638,175.628 299.332,175.777 304.026,175.897 308.72,175.994 313.413,176.075 318.107,176.14 322.801,176.192 327.495,176.233 332.188,176.267 336.882,176.294 341.576,176.316 346.27,176.333 350.963,176.348 355.657,176.36"
         stroke="#000000"
         fill="none"
         stroke-linecap="butt"
         stroke-linejoin="round"
         id="polyline283" />
      <polyline
         stroke-width="0.5"
         points="120.969,69.3696 125.663,73.6069 130.357,77.5289 135.051,81.1269 139.744,84.4049 144.438,87.3621 149.132,90.0109 153.826,92.3601 158.519,94.4222 163.213,96.2127 167.907,97.7589 172.601,99.0774 177.294,100.198 181.988,101.137 186.682,101.923 191.376,102.575 196.069,103.115 200.763,103.559 205.457,103.923 210.151,104.219 214.845,104.464 219.538,104.658 224.232,104.818 228.926,104.948 233.62,105.054 238.313,105.14 243.007,105.208 247.701,105.263 252.395,105.308 257.088,105.342 261.782,105.373 266.476,105.396 271.17,105.415 275.863,105.428 280.557,105.442 285.251,105.453 289.945,105.459 294.638,105.466 299.332,105.471 304.026,105.477 308.72,105.48 313.413,105.482 318.107,105.484 322.801,105.487 327.495,105.487 332.188,105.487 336.882,105.49 341.576,105.49 346.27,105.49 350.963,105.49 355.657,105.49"
         stroke="#000000"
         fill="none"
         stroke-linecap="butt"
         stroke-linejoin="round"
         id="polyline285" />
      <polyline
         stroke-width="0.5"
         points="120.969,52.915 125.663,55.6044 130.357,57.9552 135.051,59.9891 139.744,61.7356 144.438,63.2213 149.132,64.4742 153.826,65.5268 158.519,66.4026 163.213,67.1277 167.907,67.7259 172.601,68.2181 177.294,68.6219 181.988,68.9489 186.682,69.216 191.376,69.4333 196.069,69.6094 200.763,69.7527 205.457,69.8676 210.151,69.9604 214.845,70.0357 219.538,70.0977 224.232,70.1465 228.926,70.1865 233.62,70.2176 238.313,70.2442 243.007,70.2664 247.701,70.282 252.395,70.2953 257.088,70.3064 261.782,70.3153 266.476,70.322 271.17,70.3286 275.863,70.3331 280.557,70.3375 285.251,70.3375 289.945,70.3419 294.638,70.3419 299.332,70.3464 304.026,70.3464 308.72,70.3464 313.413,70.3464 318.107,70.3486 322.801,70.3509 327.495,70.3509 332.188,70.3509 336.882,70.3509 341.576,70.3509 346.27,70.3509 350.963,70.3509 355.657,70.3509"
         stroke="#000000"
         fill="none"
         stroke-linecap="butt"
         stroke-linejoin="round"
         id="polyline287" />
      <polyline
         stroke-width="0.5"
         points="335.43,204.943 330.292,201.57 325.117,198.126 320.016,194.605 314.845,191.006 309.69,187.324 304.568,183.556 299.426,179.698 294.302,175.744 289.112,171.69 284.001,167.532 278.863,163.263 273.738,158.877 268.573,154.368 263.422,149.728 258.304,144.951 253.143,140.027 248.027,134.947 242.873,129.702 237.756,124.279 232.546,118.666 227.454,112.851 222.312,106.816 217.185,100.546 212.007,94.0208 206.832,87.2193 201.686,80.1168 196.635,72.6855 191.449,64.8934 186.31,56.7038 181.169,48.0738"
         stroke="#0000ff"
         fill="none"
         stroke-linecap="butt"
         stroke-linejoin="round"
         id="polyline289" />
      <polyline
         stroke-width="0.5"
         points="120.969,78.5258 127.128,85.7645 133.286,92.7398 139.444,99.4644 145.602,105.958 151.76,112.233 157.918,118.303 164.076,124.18 170.234,129.875 176.392,135.397 182.55,140.758 188.709,145.965 194.867,151.027 201.025,155.95 207.183,160.742 213.341,165.409 219.499,169.956 225.657,174.39 231.815,178.717 237.973,182.94 244.132,187.066 250.29,191.097 256.448,195.038 262.606,198.891 268.764,202.662 274.922,206.353 281.08,209.968 287.238,213.51 293.396,216.98 299.555,220.383 305.713,223.72"
         stroke="#0000ff"
         fill="none"
         stroke-linecap="butt"
         stroke-linejoin="round"
         id="polyline291" />
      <polyline
         stroke-width="0.5"
         points="209.965,125.37 212.965,128.37 209.965,131.37 206.965,128.37 209.965,125.37"
         stroke="#ff0000"
         fill="none"
         stroke-linecap="square"
         stroke-linejoin="miter"
         id="polyline293" />
      <polyline
         stroke-dasharray="9, 7"
         stroke-width="1"
         points="226.058,247.837 195.546,22.0005"
         stroke="#ff0000"
         fill="none"
         stroke-linecap="butt"
         stroke-linejoin="round"
         id="polyline295" />
    </g>
  </g>
</svg>
