<?xml version='1.0' encoding='UTF-8' standalone='no'?>
<svg viewBox="0 0 392 293" xmlns:xlink="http://www.w3.org/1999/xlink" width="392pt" xmlns="http://www.w3.org/2000/svg" height="293pt">
 <title>Figure 1</title>
 <desc>
Creator: GL2PS 1.4.2, (C) 1999-2020 C. Geuzaine
For: Octave
CreationDate: Mon Oct 10 11:23:40 2022
</desc>
 <defs/>
 <polygon fill="#ffffff" points="0,0 392,0 392,293 0,293"/>
 <g>
  <polygon fill="#ffffff" points="0,293 392,293 392,0 0,0" shape-rendering="crispEdges"/>
  <clipPath id="cp00392293">
   <polygon points="0,293 392,293 392,0 0,0"/>
  </clipPath>
  <g clip-path="url(#cp00392293)">
   <polygon fill="#ffffff" shape-rendering="crispEdges" points="55.9901,247.837 355.657,247.837 355.657,22.0005 55.9901,22.0005"/>
   <polyline fill="none" stroke-linejoin="miter" stroke-dasharray="1,3,1,3,1,3,1,3" points="71.0249,247.837 71.0249,22.0005" stroke="#191919" stroke-width="0.5" stroke-opacity="0.25" stroke-linecap="butt"/>
   <polyline fill="none" stroke-linejoin="miter" stroke-dasharray="1,3,1,3,1,3,1,3" points="79.8197,247.837 79.8197,22.0005" stroke="#191919" stroke-width="0.5" stroke-opacity="0.25" stroke-linecap="butt"/>
   <polyline fill="none" stroke-linejoin="miter" stroke-dasharray="1,3,1,3,1,3,1,3" points="86.0597,247.837 86.0597,22.0005" stroke="#191919" stroke-width="0.5" stroke-opacity="0.25" stroke-linecap="butt"/>
   <polyline fill="none" stroke-linejoin="miter" stroke-dasharray="1,3,1,3,1,3,1,3" points="90.8998,247.837 90.8998,22.0005" stroke="#191919" stroke-width="0.5" stroke-opacity="0.25" stroke-linecap="butt"/>
   <polyline fill="none" stroke-linejoin="miter" stroke-dasharray="1,3,1,3,1,3,1,3" points="94.8545,247.837 94.8545,22.0005" stroke="#191919" stroke-width="0.5" stroke-opacity="0.25" stroke-linecap="butt"/>
   <polyline fill="none" stroke-linejoin="miter" stroke-dasharray="1,3,1,3,1,3,1,3" points="98.1981,247.837 98.1981,22.0005" stroke="#191919" stroke-width="0.5" stroke-opacity="0.25" stroke-linecap="butt"/>
   <polyline fill="none" stroke-linejoin="miter" stroke-dasharray="1,3,1,3,1,3,1,3" points="101.094,247.837 101.094,22.0005" stroke="#191919" stroke-width="0.5" stroke-opacity="0.25" stroke-linecap="butt"/>
   <polyline fill="none" stroke-linejoin="miter" stroke-dasharray="1,3,1,3,1,3,1,3" points="103.649,247.837 103.649,22.0005" stroke="#191919" stroke-width="0.5" stroke-opacity="0.25" stroke-linecap="butt"/>
   <polyline fill="none" stroke-linejoin="miter" stroke-dasharray="1,3,1,3,1,3,1,3" points="120.969,247.837 120.969,22.0005" stroke="#191919" stroke-width="0.5" stroke-opacity="0.25" stroke-linecap="butt"/>
   <polyline fill="none" stroke-linejoin="miter" stroke-dasharray="1,3,1,3,1,3,1,3" points="129.764,247.837 129.764,22.0005" stroke="#191919" stroke-width="0.5" stroke-opacity="0.25" stroke-linecap="butt"/>
   <polyline fill="none" stroke-linejoin="miter" stroke-dasharray="1,3,1,3,1,3,1,3" points="136.004,247.837 136.004,22.0005" stroke="#191919" stroke-width="0.5" stroke-opacity="0.25" stroke-linecap="butt"/>
   <polyline fill="none" stroke-linejoin="miter" stroke-dasharray="1,3,1,3,1,3,1,3" points="140.844,247.837 140.844,22.0005" stroke="#191919" stroke-width="0.5" stroke-opacity="0.25" stroke-linecap="butt"/>
   <polyline fill="none" stroke-linejoin="miter" stroke-dasharray="1,3,1,3,1,3,1,3" points="144.799,247.837 144.799,22.0005" stroke="#191919" stroke-width="0.5" stroke-opacity="0.25" stroke-linecap="butt"/>
   <polyline fill="none" stroke-linejoin="miter" stroke-dasharray="1,3,1,3,1,3,1,3" points="148.143,247.837 148.143,22.0005" stroke="#191919" stroke-width="0.5" stroke-opacity="0.25" stroke-linecap="butt"/>
   <polyline fill="none" stroke-linejoin="miter" stroke-dasharray="1,3,1,3,1,3,1,3" points="151.039,247.837 151.039,22.0005" stroke="#191919" stroke-width="0.5" stroke-opacity="0.25" stroke-linecap="butt"/>
   <polyline fill="none" stroke-linejoin="miter" stroke-dasharray="1,3,1,3,1,3,1,3" points="153.594,247.837 153.594,22.0005" stroke="#191919" stroke-width="0.5" stroke-opacity="0.25" stroke-linecap="butt"/>
   <polyline fill="none" stroke-linejoin="miter" stroke-dasharray="1,3,1,3,1,3,1,3" points="170.914,247.837 170.914,22.0005" stroke="#191919" stroke-width="0.5" stroke-opacity="0.25" stroke-linecap="butt"/>
   <polyline fill="none" stroke-linejoin="miter" stroke-dasharray="1,3,1,3,1,3,1,3" points="179.709,247.837 179.709,22.0005" stroke="#191919" stroke-width="0.5" stroke-opacity="0.25" stroke-linecap="butt"/>
   <polyline fill="none" stroke-linejoin="miter" stroke-dasharray="1,3,1,3,1,3,1,3" points="185.949,247.837 185.949,22.0005" stroke="#191919" stroke-width="0.5" stroke-opacity="0.25" stroke-linecap="butt"/>
   <polyline fill="none" stroke-linejoin="miter" stroke-dasharray="1,3,1,3,1,3,1,3" points="190.789,247.837 190.789,22.0005" stroke="#191919" stroke-width="0.5" stroke-opacity="0.25" stroke-linecap="butt"/>
   <polyline fill="none" stroke-linejoin="miter" stroke-dasharray="1,3,1,3,1,3,1,3" points="194.743,247.837 194.743,22.0005" stroke="#191919" stroke-width="0.5" stroke-opacity="0.25" stroke-linecap="butt"/>
   <polyline fill="none" stroke-linejoin="miter" stroke-dasharray="1,3,1,3,1,3,1,3" points="198.087,247.837 198.087,22.0005" stroke="#191919" stroke-width="0.5" stroke-opacity="0.25" stroke-linecap="butt"/>
   <polyline fill="none" stroke-linejoin="miter" stroke-dasharray="1,3,1,3,1,3,1,3" points="200.984,247.837 200.984,22.0005" stroke="#191919" stroke-width="0.5" stroke-opacity="0.25" stroke-linecap="butt"/>
   <polyline fill="none" stroke-linejoin="miter" stroke-dasharray="1,3,1,3,1,3,1,3" points="203.538,247.837 203.538,22.0005" stroke="#191919" stroke-width="0.5" stroke-opacity="0.25" stroke-linecap="butt"/>
   <polyline fill="none" stroke-linejoin="miter" stroke-dasharray="1,3,1,3,1,3,1,3" points="220.858,247.837 220.858,22.0005" stroke="#191919" stroke-width="0.5" stroke-opacity="0.25" stroke-linecap="butt"/>
   <polyline fill="none" stroke-linejoin="miter" stroke-dasharray="1,3,1,3,1,3,1,3" points="229.653,247.837 229.653,22.0005" stroke="#191919" stroke-width="0.5" stroke-opacity="0.25" stroke-linecap="butt"/>
   <polyline fill="none" stroke-linejoin="miter" stroke-dasharray="1,3,1,3,1,3,1,3" points="235.893,247.837 235.893,22.0005" stroke="#191919" stroke-width="0.5" stroke-opacity="0.25" stroke-linecap="butt"/>
   <polyline fill="none" stroke-linejoin="miter" stroke-dasharray="1,3,1,3,1,3,1,3" points="240.733,247.837 240.733,22.0005" stroke="#191919" stroke-width="0.5" stroke-opacity="0.25" stroke-linecap="butt"/>
   <polyline fill="none" stroke-linejoin="miter" stroke-dasharray="1,3,1,3,1,3,1,3" points="244.688,247.837 244.688,22.0005" stroke="#191919" stroke-width="0.5" stroke-opacity="0.25" stroke-linecap="butt"/>
   <polyline fill="none" stroke-linejoin="miter" stroke-dasharray="1,3,1,3,1,3,1,3" points="248.032,247.837 248.032,22.0005" stroke="#191919" stroke-width="0.5" stroke-opacity="0.25" stroke-linecap="butt"/>
   <polyline fill="none" stroke-linejoin="miter" stroke-dasharray="1,3,1,3,1,3,1,3" points="250.928,247.837 250.928,22.0005" stroke="#191919" stroke-width="0.5" stroke-opacity="0.25" stroke-linecap="butt"/>
   <polyline fill="none" stroke-linejoin="miter" stroke-dasharray="1,3,1,3,1,3,1,3" points="253.483,247.837 253.483,22.0005" stroke="#191919" stroke-width="0.5" stroke-opacity="0.25" stroke-linecap="butt"/>
   <polyline fill="none" stroke-linejoin="miter" stroke-dasharray="1,3,1,3,1,3,1,3" points="270.803,247.837 270.803,22.0005" stroke="#191919" stroke-width="0.5" stroke-opacity="0.25" stroke-linecap="butt"/>
   <polyline fill="none" stroke-linejoin="miter" stroke-dasharray="1,3,1,3,1,3,1,3" points="279.598,247.837 279.598,22.0005" stroke="#191919" stroke-width="0.5" stroke-opacity="0.25" stroke-linecap="butt"/>
   <polyline fill="none" stroke-linejoin="miter" stroke-dasharray="1,3,1,3,1,3,1,3" points="285.838,247.837 285.838,22.0005" stroke="#191919" stroke-width="0.5" stroke-opacity="0.25" stroke-linecap="butt"/>
   <polyline fill="none" stroke-linejoin="miter" stroke-dasharray="1,3,1,3,1,3,1,3" points="290.678,247.837 290.678,22.0005" stroke="#191919" stroke-width="0.5" stroke-opacity="0.25" stroke-linecap="butt"/>
   <polyline fill="none" stroke-linejoin="miter" stroke-dasharray="1,3,1,3,1,3,1,3" points="294.633,247.837 294.633,22.0005" stroke="#191919" stroke-width="0.5" stroke-opacity="0.25" stroke-linecap="butt"/>
   <polyline fill="none" stroke-linejoin="miter" stroke-dasharray="1,3,1,3,1,3,1,3" points="297.976,247.837 297.976,22.0005" stroke="#191919" stroke-width="0.5" stroke-opacity="0.25" stroke-linecap="butt"/>
   <polyline fill="none" stroke-linejoin="miter" stroke-dasharray="1,3,1,3,1,3,1,3" points="300.873,247.837 300.873,22.0005" stroke="#191919" stroke-width="0.5" stroke-opacity="0.25" stroke-linecap="butt"/>
   <polyline fill="none" stroke-linejoin="miter" stroke-dasharray="1,3,1,3,1,3,1,3" points="303.427,247.837 303.427,22.0005" stroke="#191919" stroke-width="0.5" stroke-opacity="0.25" stroke-linecap="butt"/>
   <polyline fill="none" stroke-linejoin="miter" stroke-dasharray="1,3,1,3,1,3,1,3" points="320.747,247.837 320.747,22.0005" stroke="#191919" stroke-width="0.5" stroke-opacity="0.25" stroke-linecap="butt"/>
   <polyline fill="none" stroke-linejoin="miter" stroke-dasharray="1,3,1,3,1,3,1,3" points="329.542,247.837 329.542,22.0005" stroke="#191919" stroke-width="0.5" stroke-opacity="0.25" stroke-linecap="butt"/>
   <polyline fill="none" stroke-linejoin="miter" stroke-dasharray="1,3,1,3,1,3,1,3" points="335.782,247.837 335.782,22.0005" stroke="#191919" stroke-width="0.5" stroke-opacity="0.25" stroke-linecap="butt"/>
   <polyline fill="none" stroke-linejoin="miter" stroke-dasharray="1,3,1,3,1,3,1,3" points="340.622,247.837 340.622,22.0005" stroke="#191919" stroke-width="0.5" stroke-opacity="0.25" stroke-linecap="butt"/>
   <polyline fill="none" stroke-linejoin="miter" stroke-dasharray="1,3,1,3,1,3,1,3" points="344.577,247.837 344.577,22.0005" stroke="#191919" stroke-width="0.5" stroke-opacity="0.25" stroke-linecap="butt"/>
   <polyline fill="none" stroke-linejoin="miter" stroke-dasharray="1,3,1,3,1,3,1,3" points="347.921,247.837 347.921,22.0005" stroke="#191919" stroke-width="0.5" stroke-opacity="0.25" stroke-linecap="butt"/>
   <polyline fill="none" stroke-linejoin="miter" stroke-dasharray="1,3,1,3,1,3,1,3" points="350.817,247.837 350.817,22.0005" stroke="#191919" stroke-width="0.5" stroke-opacity="0.25" stroke-linecap="butt"/>
   <polyline fill="none" stroke-linejoin="miter" stroke-dasharray="1,3,1,3,1,3,1,3" points="353.372,247.837 353.372,22.0005" stroke="#191919" stroke-width="0.5" stroke-opacity="0.25" stroke-linecap="butt"/>
   <polyline fill="none" stroke-linejoin="miter" stroke-dasharray="16,0" points="55.9901,247.837 55.9901,22.0005" stroke="#262626" stroke-width="0.5" stroke-opacity="0.15" stroke-linecap="butt"/>
   <polyline fill="none" stroke-linejoin="miter" stroke-dasharray="16,0" points="105.935,247.837 105.935,22.0005" stroke="#262626" stroke-width="0.5" stroke-opacity="0.15" stroke-linecap="butt"/>
   <polyline fill="none" stroke-linejoin="miter" stroke-dasharray="16,0" points="155.879,247.837 155.879,22.0005" stroke="#262626" stroke-width="0.5" stroke-opacity="0.15" stroke-linecap="butt"/>
   <polyline fill="none" stroke-linejoin="miter" stroke-dasharray="16,0" points="205.824,247.837 205.824,22.0005" stroke="#262626" stroke-width="0.5" stroke-opacity="0.15" stroke-linecap="butt"/>
   <polyline fill="none" stroke-linejoin="miter" stroke-dasharray="16,0" points="255.768,247.837 255.768,22.0005" stroke="#262626" stroke-width="0.5" stroke-opacity="0.15" stroke-linecap="butt"/>
   <polyline fill="none" stroke-linejoin="miter" stroke-dasharray="16,0" points="305.713,247.837 305.713,22.0005" stroke="#262626" stroke-width="0.5" stroke-opacity="0.15" stroke-linecap="butt"/>
   <polyline fill="none" stroke-linejoin="miter" stroke-dasharray="16,0" points="355.657,247.837 355.657,22.0005" stroke="#262626" stroke-width="0.5" stroke-opacity="0.15" stroke-linecap="butt"/>
   <polyline fill="none" stroke-linejoin="miter" points="55.9901,247.837 55.9901,244.842" stroke="#262626" stroke-width="0.5" stroke-linecap="butt"/>
   <polyline fill="none" stroke-linejoin="miter" points="105.935,247.837 105.935,244.842" stroke="#262626" stroke-width="0.5" stroke-linecap="butt"/>
   <polyline fill="none" stroke-linejoin="miter" points="155.879,247.837 155.879,244.842" stroke="#262626" stroke-width="0.5" stroke-linecap="butt"/>
   <polyline fill="none" stroke-linejoin="miter" points="205.824,247.837 205.824,244.842" stroke="#262626" stroke-width="0.5" stroke-linecap="butt"/>
   <polyline fill="none" stroke-linejoin="miter" points="255.768,247.837 255.768,244.842" stroke="#262626" stroke-width="0.5" stroke-linecap="butt"/>
   <polyline fill="none" stroke-linejoin="miter" points="305.713,247.837 305.713,244.842" stroke="#262626" stroke-width="0.5" stroke-linecap="butt"/>
   <polyline fill="none" stroke-linejoin="miter" points="355.657,247.837 355.657,244.842" stroke="#262626" stroke-width="0.5" stroke-linecap="butt"/>
   <g font-style="normal" xml:space="preserve" font-size="14" font-family="FreeSans" transform="translate(45.4901,272.329) rotate(-0,10.5,-14)" font-weight="normal">
    <text fill="rgb(38,38,38)" x="0 8 " y="-0">10</text>
    <text fill="rgb(38,38,38)" font-size="9.8" x="16 " y="-6">2</text>
   </g>
   <g font-style="normal" xml:space="preserve" font-size="14" font-family="FreeSans" transform="translate(95.4346,272.329) rotate(-0,10.5,-14)" font-weight="normal">
    <text fill="rgb(38,38,38)" x="0 8 " y="-0">10</text>
    <text fill="rgb(38,38,38)" font-size="9.8" x="16 " y="-6">3</text>
   </g>
   <g font-style="normal" xml:space="preserve" font-size="14" font-family="FreeSans" transform="translate(145.379,272.329) rotate(-0,10.5,-14)" font-weight="normal">
    <text fill="rgb(38,38,38)" x="0 8 " y="-0">10</text>
    <text fill="rgb(38,38,38)" font-size="9.8" x="16 " y="-6">4</text>
   </g>
   <g font-style="normal" xml:space="preserve" font-size="14" font-family="FreeSans" transform="translate(195.324,272.329) rotate(-0,10.5,-14)" font-weight="normal">
    <text fill="rgb(38,38,38)" x="0 8 " y="-0">10</text>
    <text fill="rgb(38,38,38)" font-size="9.8" x="16 " y="-6">5</text>
   </g>
   <g font-style="normal" xml:space="preserve" font-size="14" font-family="FreeSans" transform="translate(245.268,272.329) rotate(-0,10.5,-14)" font-weight="normal">
    <text fill="rgb(38,38,38)" x="0 8 " y="-0">10</text>
    <text fill="rgb(38,38,38)" font-size="9.8" x="16 " y="-6">6</text>
   </g>
   <g font-style="normal" xml:space="preserve" font-size="14" font-family="FreeSans" transform="translate(295.213,272.329) rotate(-0,10.5,-14)" font-weight="normal">
    <text fill="rgb(38,38,38)" x="0 8 " y="-0">10</text>
    <text fill="rgb(38,38,38)" font-size="9.8" x="16 " y="-6">7</text>
   </g>
   <g font-style="normal" xml:space="preserve" font-size="14" font-family="FreeSans" transform="translate(345.157,272.329) rotate(-0,10.5,-14)" font-weight="normal">
    <text fill="rgb(38,38,38)" x="0 8 " y="-0">10</text>
    <text fill="rgb(38,38,38)" font-size="9.8" x="16 " y="-6">8</text>
   </g>
   <polyline fill="none" stroke-linejoin="miter" stroke-dasharray="1,3,1,3,1,3,1,3" points="55.9901,247.837 355.657,247.837" stroke="#191919" stroke-width="0.5" stroke-opacity="0.25" stroke-linecap="butt"/>
   <polyline fill="none" stroke-linejoin="miter" stroke-dasharray="1,3,1,3,1,3,1,3" points="55.9901,235.463 355.657,235.463" stroke="#191919" stroke-width="0.5" stroke-opacity="0.25" stroke-linecap="butt"/>
   <polyline fill="none" stroke-linejoin="miter" stroke-dasharray="1,3,1,3,1,3,1,3" points="55.9901,224.744 355.657,224.744" stroke="#191919" stroke-width="0.5" stroke-opacity="0.25" stroke-linecap="butt"/>
   <polyline fill="none" stroke-linejoin="miter" stroke-dasharray="1,3,1,3,1,3,1,3" points="55.9901,215.29 355.657,215.29" stroke="#191919" stroke-width="0.5" stroke-opacity="0.25" stroke-linecap="butt"/>
   <polyline fill="none" stroke-linejoin="miter" stroke-dasharray="1,3,1,3,1,3,1,3" points="55.9901,151.192 355.657,151.192" stroke="#191919" stroke-width="0.5" stroke-opacity="0.25" stroke-linecap="butt"/>
   <polyline fill="none" stroke-linejoin="miter" stroke-dasharray="1,3,1,3,1,3,1,3" points="55.9901,118.645 355.657,118.645" stroke="#191919" stroke-width="0.5" stroke-opacity="0.25" stroke-linecap="butt"/>
   <polyline fill="none" stroke-linejoin="miter" stroke-dasharray="1,3,1,3,1,3,1,3" points="55.9901,95.5524 355.657,95.5524" stroke="#191919" stroke-width="0.5" stroke-opacity="0.25" stroke-linecap="butt"/>
   <polyline fill="none" stroke-linejoin="miter" stroke-dasharray="1,3,1,3,1,3,1,3" points="55.9901,77.6404 355.657,77.6404" stroke="#191919" stroke-width="0.5" stroke-opacity="0.25" stroke-linecap="butt"/>
   <polyline fill="none" stroke-linejoin="miter" stroke-dasharray="1,3,1,3,1,3,1,3" points="55.9901,63.0052 355.657,63.0052" stroke="#191919" stroke-width="0.5" stroke-opacity="0.25" stroke-linecap="butt"/>
   <polyline fill="none" stroke-linejoin="miter" stroke-dasharray="1,3,1,3,1,3,1,3" points="55.9901,50.6313 355.657,50.6313" stroke="#191919" stroke-width="0.5" stroke-opacity="0.25" stroke-linecap="butt"/>
   <polyline fill="none" stroke-linejoin="miter" stroke-dasharray="1,3,1,3,1,3,1,3" points="55.9901,39.9125 355.657,39.9125" stroke="#191919" stroke-width="0.5" stroke-opacity="0.25" stroke-linecap="butt"/>
   <polyline fill="none" stroke-linejoin="miter" stroke-dasharray="1,3,1,3,1,3,1,3" points="55.9901,30.4579 355.657,30.4579" stroke="#191919" stroke-width="0.5" stroke-opacity="0.25" stroke-linecap="butt"/>
   <polyline fill="none" stroke-linejoin="miter" stroke-dasharray="16,0" points="55.9901,206.832 355.657,206.832" stroke="#262626" stroke-width="0.5" stroke-opacity="0.15" stroke-linecap="butt"/>
   <polyline fill="none" stroke-linejoin="miter" stroke-dasharray="16,0" points="55.9901,22.0005 355.657,22.0005" stroke="#262626" stroke-width="0.5" stroke-opacity="0.15" stroke-linecap="butt"/>
   <polyline fill="none" stroke-linejoin="miter" points="55.9901,206.832 58.9835,206.832" stroke="#262626" stroke-width="0.5" stroke-linecap="butt"/>
   <polyline fill="none" stroke-linejoin="miter" points="55.9901,22.0005 58.9835,22.0005" stroke="#262626" stroke-width="0.5" stroke-linecap="butt"/>
   <g font-style="normal" xml:space="preserve" font-size="14" font-family="FreeSans" transform="translate(24.9979,213.832) rotate(-0,24,-7)" font-weight="normal">
    <text fill="rgb(38,38,38)" x="0 8 " y="-0">10</text>
    <text fill="rgb(38,38,38)" font-size="9.8" x="16 19 " y="-6">-2</text>
   </g>
   <g font-style="normal" xml:space="preserve" font-size="14" font-family="FreeSans" transform="translate(24.9979,29.0005) rotate(-0,24,-7)" font-weight="normal">
    <text fill="rgb(38,38,38)" x="0 8 " y="-0">10</text>
    <text fill="rgb(38,38,38)" font-size="9.8" x="16 19 " y="-6">-1</text>
   </g>
   <polyline fill="none" stroke-linejoin="miter" stroke-dasharray="16,0" points="55.9901,247.837 355.657,247.837" stroke="#262626" stroke-width="0.5" stroke-linecap="square"/>
   <polyline fill="none" stroke-linejoin="miter" stroke-dasharray="16,0" points="55.9901,247.837 55.9901,22.0005" stroke="#262626" stroke-width="0.5" stroke-linecap="square"/>
   <g font-style="italic" xml:space="preserve" font-size="15.4" font-family="FreeSans" transform="translate(163.824,293.329) rotate(-0,42,-16)" font-weight="normal">
    <text fill="rgb(38,38,38)" x="0 11 " y="-3">Re</text>
    <text fill="rgb(38,38,38)" font-style="normal" x="19 23 32 " y="-3"> = </text>
    <text fill="rgb(38,38,38)" x="36 " y="-3">ρ</text>
    <text fill="rgb(38,38,38)" x="44 52 " y="-3">uD</text>
    <text fill="rgb(38,38,38)" font-style="normal" x="63 67 71 " y="-3"> / </text>
    <text fill="rgb(38,38,38)" x="75 " y="-3">μ</text>
   </g>
   <g font-style="italic" xml:space="preserve" font-size="15.4" font-family="FreeSans" transform="translate(-55.0021,134.919) rotate(-90,75,0)" font-weight="normal">
    <text fill="rgb(38,38,38)" x="0 " y="-4">f</text>
    <text fill="rgb(38,38,38)" font-style="normal" x="4 8 17 21 " y="-4"> = 2</text>
    <text fill="rgb(38,38,38)" x="30 39 47 " y="-4">ghD</text>
    <text fill="rgb(38,38,38)" font-style="normal" font-size="10.78" x="58 " y="-11">3</text>
    <text fill="rgb(38,38,38)" x="64 " y="-4">ρ</text>
    <text fill="rgb(38,38,38)" font-style="normal" font-size="10.78" x="72 " y="-11">2</text>
    <text fill="rgb(38,38,38)" font-style="normal" x="78 82 86 " y="-4"> / </text>
    <text fill="rgb(38,38,38)" x="90 " y="-4">μ</text>
    <text fill="rgb(38,38,38)" font-style="normal" font-size="10.78" x="99 " y="-11">2</text>
    <text fill="rgb(38,38,38)" x="105 " y="-4">L</text>
    <text fill="rgb(38,38,38)" font-style="normal" x="114 " y="-4"/>
    <text fill="rgb(38,38,38)" font-style="normal" x="118 " y="-4">×</text>
    <text fill="rgb(38,38,38)" font-style="normal" x="127 " y="-4"/>
    <text fill="rgb(38,38,38)" x="131 142 " y="-4">Re</text>
   </g>
   <polyline fill="none" stroke-linejoin="round" points="96.1934,21.7747 136.004,169.104" stroke="#000000" stroke-width="1" stroke-linecap="butt"/>
   <polyline fill="none" stroke-linejoin="round" points="120.969,75.2771 125.663,80.3104 130.357,85.1073 135.051,89.6671 139.744,93.9805 144.438,98.0446 149.132,101.854 153.826,105.403 158.519,108.687 163.213,111.703 167.907,114.449 172.601,116.927 177.294,119.144 181.988,121.104 186.682,122.822 191.376,124.316 196.069,125.599 200.763,126.694 205.457,127.62 210.151,128.399 214.845,129.047 219.538,129.586 224.232,130.029 228.926,130.395 233.62,130.693 238.313,130.939 243.007,131.136 247.701,131.298 252.395,131.43 257.088,131.536 261.782,131.622 266.476,131.692 271.17,131.748 275.863,131.793 280.557,131.83 285.251,131.859 289.945,131.884 294.638,131.902 299.332,131.918 304.026,131.931 308.72,131.94 313.413,131.949 318.107,131.954 322.801,131.961 327.495,131.965 332.188,131.968 336.882,131.97 341.576,131.972 346.27,131.974 350.963,131.977 355.657,131.977" stroke="#ff0000" stroke-width="0.5" stroke-linecap="butt"/>
   <polyline fill="none" stroke-linejoin="round" points="120.969,77.4183 125.663,82.7809 130.357,87.9574 135.051,92.9485 139.744,97.757 144.438,102.38 149.132,106.821 153.826,111.072 158.519,115.133 163.213,118.999 167.907,122.663 172.601,126.117 177.294,129.358 181.988,132.374 186.682,135.166 191.376,137.726 196.069,140.052 200.763,142.149 205.457,144.018 210.151,145.668 214.845,147.114 219.538,148.363 224.232,149.434 228.926,150.346 233.62,151.116 238.313,151.761 243.007,152.298 247.701,152.742 252.395,153.11 257.088,153.41 261.782,153.656 266.476,153.856 271.17,154.02 275.863,154.153 280.557,154.261 285.251,154.347 289.945,154.418 294.638,154.475 299.332,154.521 304.026,154.559 308.72,154.589 313.413,154.613 318.107,154.632 322.801,154.649 327.495,154.661 332.188,154.671 336.882,154.679 341.576,154.685 346.27,154.691 350.963,154.695 355.657,154.7" stroke="#000000" stroke-width="0.5" stroke-linecap="butt"/>
   <polyline fill="none" stroke-linejoin="round" points="120.969,78.1913 125.663,83.6771 130.357,88.9985 135.051,94.1613 139.744,99.1658 144.438,104.022 149.132,108.731 153.826,113.295 158.519,117.716 163.213,121.994 167.907,126.13 172.601,130.122 177.294,133.968 181.988,137.665 186.682,141.206 191.376,144.588 196.069,147.8 200.763,150.84 205.457,153.699 210.151,156.371 214.845,158.846 219.538,161.123 224.232,163.201 228.926,165.074 233.62,166.75 238.313,168.231 243.007,169.529 247.701,170.655 252.395,171.624 257.088,172.446 261.782,173.143 266.476,173.726 271.17,174.214 275.863,174.617 280.557,174.949 285.251,175.223 289.945,175.446 294.638,175.628 299.332,175.776 304.026,175.897 308.72,175.995 313.413,176.074 318.107,176.139 322.801,176.192 327.495,176.233 332.188,176.266 336.882,176.294 341.576,176.315 346.27,176.333 350.963,176.347 355.657,176.359" stroke="#000000" stroke-width="0.5" stroke-linecap="butt"/>
   <polyline fill="none" stroke-linejoin="round" points="120.969,69.3691 125.663,73.6087 130.357,77.5263 135.051,81.1263 139.744,84.4028 144.438,87.3626 149.132,90.0102 153.826,92.3599 158.519,94.422 163.213,96.2129 167.907,97.76 172.601,99.0785 177.294,100.196 181.988,101.138 186.682,101.922 191.376,102.576 196.069,103.115 200.763,103.559 205.457,103.923 210.151,104.22 214.845,104.461 219.538,104.658 224.232,104.819 228.926,104.948 233.62,105.054 238.313,105.14 243.007,105.208 247.701,105.263 252.395,105.308 257.088,105.344 261.782,105.373 266.476,105.396 271.17,105.416 275.863,105.429 280.557,105.442 285.251,105.452 289.945,105.461 294.638,105.468 299.332,105.471 304.026,105.476 308.72,105.479 313.413,105.481 318.107,105.484 322.801,105.487 327.495,105.487 332.188,105.487 336.882,105.491 341.576,105.491 346.27,105.491 350.963,105.491 355.657,105.491" stroke="#000000" stroke-width="0.5" stroke-linecap="butt"/>
   <polyline fill="none" stroke-linejoin="round" points="120.969,52.9139 125.663,55.6052 130.357,57.9562 135.051,59.9891 139.744,61.7379 144.438,63.221 149.132,64.4737 153.826,65.5282 158.519,66.4022 163.213,67.1281 167.907,67.7263 172.601,68.2183 177.294,68.6206 181.988,68.9485 186.682,69.2155 191.376,69.4314 196.069,69.6104 200.763,69.7522 205.457,69.8692 210.151,69.9612 214.845,70.0366 219.538,70.0973 224.232,70.1456 228.926,70.1875 233.62,70.2169 238.313,70.2442 243.007,70.2631 247.701,70.2799 252.395,70.2967 257.088,70.3051 261.782,70.3135 266.476,70.3219 271.17,70.3261 275.863,70.3303 280.557,70.3345 285.251,70.3388 289.945,70.343 294.638,70.343 299.332,70.343 304.026,70.3472 308.72,70.3472 313.413,70.3472 318.107,70.3472 322.801,70.3472 327.495,70.3493 332.188,70.3514 336.882,70.3514 341.576,70.3514 346.27,70.3514 350.963,70.3514 355.657,70.3514" stroke="#000000" stroke-width="0.5" stroke-linecap="butt"/>
   <polyline fill="none" stroke-linejoin="round" points="335.43,204.943 330.292,201.57 325.117,198.126 320.016,194.605 314.845,191.006 309.69,187.324 304.568,183.556 299.426,179.698 294.302,175.744 289.112,171.69 284.001,167.532 278.863,163.263 273.738,158.877 268.573,154.368 263.422,149.728 258.304,144.951 253.143,140.027 248.027,134.947 242.873,129.702 237.756,124.279 232.546,118.666 227.454,112.851 222.312,106.816 217.185,100.546 212.007,94.0208 206.832,87.2193 201.686,80.1168 196.635,72.6855 191.449,64.8934 186.31,56.7038 181.169,48.0738" stroke="#0000ff" stroke-width="0.5" stroke-linecap="butt"/>
   <polyline fill="none" stroke-linejoin="round" points="120.969,78.5258 127.128,85.7645 133.286,92.7398 139.444,99.4644 145.602,105.958 151.76,112.233 157.918,118.303 164.076,124.18 170.234,129.875 176.392,135.397 182.55,140.758 188.709,145.965 194.867,151.027 201.025,155.95 207.183,160.742 213.341,165.409 219.499,169.956 225.657,174.39 231.815,178.717 237.973,182.94 244.132,187.066 250.29,191.097 256.448,195.038 262.606,198.891 268.764,202.662 274.922,206.353 281.08,209.968 287.238,213.51 293.396,216.98 299.555,220.383 305.713,223.72" stroke="#0000ff" stroke-width="0.5" stroke-linecap="butt"/>
   <polyline fill="none" stroke-linejoin="miter" points="210.772,125.49 213.772,128.49 210.772,131.49 207.772,128.49 210.772,125.49" stroke="#ff0000" stroke-width="0.5" stroke-linecap="square"/>
   <polyline fill="none" stroke-linejoin="round" stroke-dasharray="9,7" points="178.42,247.837 239.445,22.0005" stroke="#ff0000" stroke-width="1" stroke-linecap="butt"/>
  </g>
 </g>
</svg>
